<svg width="1948" height="21297" viewBox="0 0 1948 21297" fill="none" xmlns="http://www.w3.org/2000/svg">
<g clip-path="url(#clip0_370_229)">
<rect width="1948" height="21297" fill="white"/>
<path d="M2380.04 0H-608V1653.86H2380.04V0Z" fill="#CBE6FF"/>
<g style="mix-blend-mode:multiply" opacity="0.3">
<path d="M2380.04 509.77V1300.51L2378.19 1300.84L2303.46 1275.22L2295.9 1316.74H2157.14V1268.79H2080.33L2034.25 1286.32L1918.44 1268.79L1858.89 1307.94L1826.42 1297.89H1799.99L1806.1 1335.69H1680.55L1546.64 1312.64H1504.17L1499.32 1305.18H1360.56L1338.22 1302.45H1272.97L1166.45 1278.53H1065.68L991.1 1292.89L919.37 1302.63L899.14 1307.31V1313.38L886.02 1310.34L872.9 1313.38V1307.31L852.67 1302.63L780.94 1292.89L706.35 1278.53H605.59L499.07 1302.45H433.82L411.49 1305.18H272.72L267.87 1312.64H225.4L91.5 1335.69H-34.06L-27.96 1297.89H-54.39L-86.85 1307.94L-146.39 1268.79L-262.21 1286.32L-308.29 1268.79H-385.1V1316.74H-523.87L-531.43 1275.22L-606.16 1300.84L-608 1300.51V509.77H-485.04V694.82H-447.05V646.86H-316.54V541.17H-194.3V729.33H-156.3V646.86H-60.49V481.89H35.33V713.76H121.68V779.5H180.07V481.89H308.91V683.25H382.57V590.67H511.42V729.33H594.02V656.61H732.79V747.66H813.74V509.77H958.31V747.66H1039.25V656.61H1178.01V729.33H1260.61V590.67H1389.47V683.25H1463.12V481.89H1591.98V779.5H1650.36V713.76H1736.71V481.89H1832.53V646.86H1928.34V729.33H1966.34V541.17H2088.58V646.86H2219.08V694.82H2257.09V509.77H2380.04Z" fill="#F4DECE"/>
</g>
<path d="M671.079 967.85L394.27 977.05C394.35 976.23 400.64 957.28 401.06 956.47C422.44 914.77 461.3 939.01 461.3 939.01C485.49 901.45 516.28 932.72 516.28 932.72C516.28 932.72 519.739 853.32 589.469 861.76C650.269 869.12 642.8 929.42 642.8 929.42C678.83 931.73 671.029 965.27 671.089 967.85H671.079Z" fill="#488C6C"/>
<path d="M1337.04 970.61L1604.31 1016.53C1604.35 1015.72 1600.77 996.5 1600.48 995.67C1585.32 952.36 1544.38 970.68 1544.38 970.68C1525.94 931.01 1491.9 957.23 1491.9 957.23C1491.9 957.23 1499.16 879.75 1430.39 878.62C1370.43 877.63 1369.62 937.12 1369.62 937.12C1334.37 934.54 1337.45 968.13 1337.04 970.62V970.61Z" fill="#488C6C"/>
<path d="M-608 896.71C-608 896.71 357.44 865.56 570.78 1108.37C784.11 1351.18 23.22 1372.64 23.22 1372.64L-608 1431.93V896.71Z" fill="#488C6C"/>
<path d="M2380.04 895.41C2380.04 895.41 1453.04 935.26 1109.04 1284.34C765.04 1633.43 2079.71 1508.83 2098.37 1504.03C2117.04 1499.24 2380.04 1271.6 2380.04 1271.6V895.4V895.41Z" fill="#488C6C"/>
<path d="M1770.38 912.05L1767.46 911.61C1767.34 912.39 1764.71 930.78 1776.79 944.43C1784.96 953.66 1797.71 958.32 1814.72 958.32C1815.66 958.32 1816.63 958.31 1817.6 958.28L1817.43 952.4C1800.83 952.89 1788.66 948.91 1781.24 940.57C1771 929.06 1773.24 912.76 1773.28 912.5L1770.37 912.06H1770.38V912.05Z" fill="#49263E"/>
<path d="M1770.38 912.05L1773.28 912.49V912.48L1770.38 912.05Z" fill="#49263E"/>
<path d="M1770.37 912.05L1773.28 912.49L1770.38 912.05H1770.37Z" fill="#49263E"/>
<path d="M1776.9 685.19L1773.97 684.74C1773.85 685.52 1771.22 703.91 1783.31 717.56C1791.48 726.79 1804.23 731.45 1821.24 731.45C1822.18 731.45 1823.15 731.44 1824.12 731.41L1823.95 725.53C1807.35 726.02 1795.18 722.04 1787.76 713.7C1777.52 702.19 1779.76 685.89 1779.8 685.63L1776.89 685.19H1776.91H1776.9Z" fill="#49263E"/>
<path d="M1776.88 685.19L1779.79 685.63L1776.9 685.19H1776.88Z" fill="#49263E"/>
<path d="M1776.9 685.19L1779.79 685.63L1776.9 685.19Z" fill="#49263E"/>
<path d="M1872.31 835.5L1875.2 835.06L1872.31 835.5Z" fill="#49263E"/>
<path d="M1864.35 863.57C1856.93 871.91 1844.76 875.89 1828.16 875.4L1827.99 881.28C1828.96 881.31 1829.92 881.32 1830.87 881.32C1847.88 881.32 1860.63 876.65 1868.8 867.43C1880.88 853.79 1878.25 835.39 1878.13 834.61L1875.2 835.06H1875.22L1872.31 835.5C1872.35 835.76 1874.59 852.06 1864.35 863.57Z" fill="#49263E"/>
<path d="M1875.2 835.06L1872.31 835.5L1875.22 835.06H1875.2Z" fill="#49263E"/>
<path d="M1877.41 743.94V743.95L1880.31 743.51L1877.41 743.94Z" fill="#49263E"/>
<path d="M1869.45 772.02C1862.03 780.36 1849.86 784.34 1833.26 783.85L1833.09 789.73C1834.06 789.76 1835.02 789.77 1835.97 789.77C1852.98 789.77 1865.73 785.1 1873.9 775.88C1885.99 762.24 1883.35 743.84 1883.24 743.06L1880.32 743.5L1877.41 743.94C1877.45 744.2 1879.69 760.5 1869.45 772.01V772.02Z" fill="#49263E"/>
<path d="M1836.78 1194.41L1833.37 637.08V636.87H1826.54H1826.53H1819.7V637.08L1816.28 1194.41H1836.78Z" fill="#49263E"/>
<path d="M1750.99 628.85C1748.49 634.9 1752.3 641.75 1758.65 643.32C1778.66 648.26 1832.74 659.15 1886.06 648.45C1896.51 646.35 1904 636.68 1902.69 626.1C1902.05 620.91 1899.29 616.47 1892.07 615.5C1892.07 615.5 1889.08 584.72 1864.28 594.12C1864.28 594.12 1848.03 571.89 1828.8 598.4C1828.8 598.4 1816.4 563.77 1782.63 576.6C1748.86 589.43 1761.68 623.2 1761.68 623.2C1761.68 623.2 1753.87 621.86 1750.99 628.85Z" fill="#4F9E7A"/>
<path d="M1721.96 909.98C1719.78 914.01 1720.36 917.61 1721.88 920.5C1724.22 924.95 1728.82 927.76 1733.83 928.21C1747.59 929.45 1786.31 932.31 1808.77 927.72C1821.46 925.13 1828.75 911.19 1822.7 899.73C1820.71 895.95 1817.45 893.03 1812.16 892.88C1796.77 892.45 1790.78 905.06 1790.78 905.06C1790.78 905.06 1784.79 871.07 1760 874.92C1735.2 878.77 1738.2 905.7 1738.2 905.7C1738.2 905.7 1727.51 899.71 1721.95 909.98H1721.96Z" fill="#4F9E7A"/>
<path d="M1888.47 708.35C1868.71 705.28 1863.94 732.37 1863.94 732.37C1863.94 732.37 1859.17 722.32 1846.91 722.66C1842.69 722.78 1840.1 725.11 1838.51 728.12C1833.69 737.25 1839.5 748.36 1849.61 750.42C1867.51 754.07 1898.37 751.8 1909.33 750.81C1913.32 750.45 1916.98 748.22 1918.85 744.67C1920.06 742.37 1920.53 739.5 1918.79 736.29C1914.36 728.11 1905.84 732.88 1905.84 732.88C1905.84 732.88 1908.22 711.42 1888.46 708.35H1888.47Z" fill="#4F9E7A"/>
<path d="M1884.28 811.77C1867.65 809.19 1863.63 831.98 1863.63 831.98C1863.63 831.98 1859.62 823.52 1849.29 823.81C1845.74 823.91 1843.56 825.87 1842.22 828.4C1838.17 836.09 1843.05 845.43 1851.57 847.17C1866.64 850.25 1892.61 848.33 1901.83 847.5C1905.19 847.2 1908.27 845.32 1909.84 842.33C1910.86 840.39 1911.25 837.98 1909.79 835.27C1906.06 828.39 1898.89 832.4 1898.89 832.4C1898.89 832.4 1900.9 814.34 1884.27 811.76L1884.28 811.77Z" fill="#4F9E7A"/>
<path d="M1757.25 683.57C1755.79 686.27 1756.18 688.69 1757.2 690.63C1758.77 693.62 1761.85 695.5 1765.21 695.8C1774.44 696.63 1800.41 698.55 1815.47 695.47C1823.98 693.73 1828.87 684.38 1824.82 676.7C1823.48 674.17 1821.3 672.21 1817.75 672.11C1807.43 671.82 1803.41 680.28 1803.41 680.28C1803.41 680.28 1799.4 657.48 1782.76 660.07C1766.13 662.65 1768.14 680.71 1768.14 680.71C1768.14 680.71 1760.97 676.7 1757.24 683.58L1757.25 683.57Z" fill="#4F9E7A"/>
<path d="M1750.59 628.68L1751.4 629.02C1754.12 622.45 1761.31 623.58 1761.61 623.64L1762.37 623.77L1762.1 623.05C1762.07 622.97 1758.94 614.56 1759.94 604.73C1761.28 591.59 1768.97 582.27 1782.8 577.02C1792.54 573.32 1801.42 573.26 1809.19 576.84C1822.72 583.08 1828.35 598.4 1828.4 598.56L1829.23 598.26C1829.17 598.1 1823.43 582.44 1809.56 576.04C1801.56 572.35 1792.46 572.4 1782.48 576.19C1764.82 582.89 1760 595.37 1759.06 604.66C1758.21 613.09 1760.33 620.49 1761.05 622.69C1759 622.55 1753.05 622.72 1750.59 628.68Z" fill="black"/>
<path d="M1885.98 648.02L1886.15 648.88C1896.98 646.71 1904.44 636.68 1903.13 626.05C1902.34 619.63 1898.64 615.94 1892.13 615.07L1892.01 615.94C1898.07 616.75 1901.52 620.18 1902.25 626.15C1903.5 636.33 1896.35 645.93 1885.97 648.02H1885.98Z" fill="black"/>
<path d="M1859.65 651.68C1833.06 655.42 1779.57 647.26 1779.03 647.18L1778.9 648.05C1779.34 648.12 1814.88 653.54 1842.52 653.54C1848.86 653.54 1854.79 653.25 1859.78 652.55L1859.66 651.68H1859.65Z" fill="black"/>
<path d="M1812.23 695.58C1795.63 698.47 1763.82 695.08 1763.5 695.04L1763.41 695.91C1763.63 695.93 1779.4 697.62 1794.56 697.62C1801.03 697.62 1807.39 697.31 1812.39 696.44C1818.73 695.34 1823.04 692.75 1825.21 688.75C1827.66 684.22 1826.47 679.37 1826.01 678.32L1825.2 678.67C1825.62 679.64 1826.71 684.12 1824.43 688.33C1822.4 692.08 1818.3 694.52 1812.23 695.58Z" fill="black"/>
<path d="M1781.21 660.8C1795.27 657.74 1800.48 672.34 1800.7 672.96L1801.53 672.67C1801.47 672.51 1795.86 656.71 1781.03 659.94C1766.2 663.17 1767.7 680.56 1767.72 680.73L1768.59 680.65C1768.57 680.48 1767.14 663.86 1781.22 660.8H1781.21Z" fill="black"/>
<path d="M1849.99 723.17C1854.76 723.65 1859.33 726.83 1863.58 732.63L1864.15 733.41L1864.36 732.46C1864.41 732.22 1869.76 708.73 1884.11 708.59V707.71C1870.54 707.84 1864.87 726.85 1863.72 731.35C1859.47 725.82 1854.88 722.77 1850.07 722.29C1844.03 721.68 1839.91 725.35 1839.74 725.51L1840.33 726.16C1840.33 726.16 1844.32 722.6 1849.98 723.17H1849.99Z" fill="black"/>
<path d="M1909.27 750.37C1896.56 752.21 1864.15 751.66 1863.82 751.65L1863.8 752.53C1863.92 752.53 1868.57 752.61 1875.02 752.61C1885.74 752.61 1901.41 752.39 1909.39 751.24C1913.47 750.65 1916.42 749.02 1918.16 746.4C1920.91 742.27 1919.66 737.22 1919.61 737.01L1918.76 737.23C1918.76 737.23 1919.97 742.11 1917.43 745.92C1915.83 748.32 1913.08 749.82 1909.26 750.38L1909.27 750.37Z" fill="black"/>
<path d="M1725.49 905.52C1720.29 909.06 1720.09 916.8 1720.08 917.13L1720.96 917.15C1720.96 917.07 1721.15 909.54 1725.98 906.25C1728.91 904.26 1732.97 904.21 1738.05 906.11L1738.69 906.35L1738.64 905.66C1738.64 905.59 1738.14 898.59 1740.65 891.37C1744 881.75 1750.84 876.32 1760.97 875.22L1760.88 874.35C1747.8 875.77 1742.21 884.24 1739.82 891.1C1737.71 897.18 1737.68 903.1 1737.74 905.05C1732.67 903.28 1728.55 903.43 1725.5 905.51L1725.49 905.52Z" fill="black"/>
<path d="M1806.44 927.71C1783.37 932 1747.58 928.83 1747.22 928.8L1747.14 929.67C1747.35 929.69 1760.23 930.83 1775.51 930.83C1785.83 930.83 1797.25 930.31 1806.59 928.57C1813.9 927.21 1819.12 924.07 1822.13 919.24C1826.85 911.64 1824.39 902.68 1824.29 902.31L1823.45 902.55C1823.48 902.64 1825.91 911.51 1821.39 918.78C1818.52 923.4 1813.49 926.4 1806.44 927.71Z" fill="black"/>
<path d="M1904.43 846.49C1904.14 846.52 1874.8 849.33 1858.04 847.71L1857.96 848.58C1861.73 848.94 1866.13 849.09 1870.7 849.09C1886.52 849.09 1904.3 847.39 1904.53 847.37L1904.45 846.5L1904.43 846.49Z" fill="black"/>
<path d="M1877 812.88C1885.04 810.1 1893.32 816.46 1893.41 816.53L1893.95 815.84C1893.6 815.56 1885.2 809.12 1876.72 812.06C1870.47 814.22 1865.93 820.9 1863.22 831.89L1864.07 832.1C1866.7 821.41 1871.06 814.94 1877.01 812.89L1877 812.88Z" fill="black"/>
<path d="M2290.33 1223.2L2105.12 1848.42L2102.04 1858.8L2038.94 2071.85L2012.12 2162.39L2002.99 2193.19L1971.58 2299.23H-28.42L-225.68 2031.79L-228.13 2028.46L-360.93 1848.42L-363.68 1844.7L-403.35 1790.92L-412.25 1778.85L-499.57 1660.45L-500.22 1659.57L-607.6 1514L-608 1513.45V1044.57C-112.61 1001.91 815.48 929.76 1200.14 951.59C1676.2 978.62 2165.18 1171.28 2269.86 1214.58C2269.86 1214.58 2269.87 1214.58 2269.88 1214.59C2283.24 1220.11 2290.33 1223.2 2290.33 1223.2Z" fill="#4F9E7A"/>
<path d="M1627.32 274.38C1556.83 268.2 1555.98 348.13 1555.98 348.13C1555.98 348.13 1523.94 317.72 1500.83 356.28C1500.83 356.28 1460.9 333.2 1440.75 375.83C1440.36 376.65 1440.16 377.5 1440.11 378.33H1713.01C1712.86 375.74 1711.85 373.13 1709.76 370.9C1705.19 366.03 1697.38 362.06 1684.26 361.14C1684.26 361.14 1688.78 279.78 1627.32 274.39V274.38Z" fill="white"/>
<path d="M1311.22 1157.56L973.44 1179.93C973.5 1178.92 980.43 1155.52 980.9 1154.52C1005.34 1102.72 1053.79 1130.76 1053.79 1130.76C1081.82 1083.9 1120.69 1120.86 1120.69 1120.86C1120.69 1120.86 1121.73 1023.72 1207.25 1031.24C1281.82 1037.79 1275.11 1111.74 1275.11 1111.74C1319.21 1113.11 1311.03 1154.4 1311.21 1157.55L1311.22 1157.56Z" fill="#2A514F"/>
<path d="M1868.95 2135.6C1776.95 2056.15 1724.94 2074.86 1669.45 1978.97C1610.48 1877.06 1658.79 1847.55 1588.74 1751.53C1518.69 1655.52 1459.32 1690.94 1389.26 1594.93C1319.22 1498.92 1378.6 1463.5 1308.55 1367.48C1238.51 1271.48 1184.96 1290.53 1130.87 1203.37C1073.18 1110.43 1077.14 1022.45 971.21 977C865.29 1022.46 869.23 1110.43 811.55 1203.37C757.47 1290.53 703.91 1271.48 633.86 1367.48C563.81 1463.49 623.2 1498.92 553.15 1594.93C483.11 1690.93 423.72 1655.51 353.67 1751.53C283.62 1847.54 331.93 1877.05 272.97 1978.97C217.48 2074.86 165.48 2056.14 73.48 2135.6C22.47 2179.65 3.45 2230.11 -6 2273.64V6510.9H971.22H1948.43V2273.64C1938.96 2230.11 1919.95 2179.65 1868.94 2135.6H1868.95Z" fill="url(#paint0_linear_370_229)"/>
<path d="M1891.49 3626.07C1797.31 3449.41 1744.08 3491.02 1687.29 3277.83C1626.92 3051.22 1676.38 2985.6 1604.67 2772.12C1532.97 2558.66 1472.2 2637.39 1400.5 2423.96C1328.79 2210.49 1389.58 2131.73 1317.88 1918.25C1246.19 1704.81 1191.38 1747.16 1136.01 1553.38C1076.96 1346.73 1081.01 1151.13 972.579 1050.06C864.149 1151.13 868.199 1346.73 809.159 1553.38C753.779 1747.16 698.969 1704.81 627.269 1918.25C555.579 2131.73 616.359 2210.5 544.659 2423.96C472.959 2637.4 412.189 2558.66 340.469 2772.12C268.779 2985.6 318.219 3051.22 257.859 3277.83C201.069 3491.01 147.839 3449.41 53.659 3626.07C28.489 3673.3 10.979 3723.84 -1.54102 3774.37V6437.86H1932.58V3774.37H1946.7C1934.18 3723.84 1916.66 3673.3 1891.49 3626.07Z" fill="url(#paint1_linear_370_229)"/>
<path d="M1887.03 4958.01C1792.85 4781.35 1739.62 4822.96 1682.83 4609.77C1622.46 4383.16 1671.92 4317.54 1600.21 4104.06C1528.51 3890.6 1467.74 3969.33 1396.04 3755.9C1324.33 3542.43 1385.12 3463.67 1313.42 3250.19C1241.73 3036.75 1186.92 3079.1 1131.55 2885.32C1072.5 2678.67 1076.55 2483.07 968.12 2382C859.69 2483.07 863.74 2678.67 804.7 2885.32C749.32 3079.1 694.51 3036.75 622.81 3250.19C551.12 3463.67 611.9 3542.44 540.2 3755.9C468.5 3969.34 407.73 3890.6 336.01 4104.06C264.32 4317.54 313.76 4383.16 253.4 4609.77C196.61 4822.95 143.38 4781.35 49.2 4958.01C24.03 5005.24 6.52 5055.78 -6 5106.31V7769.8H1928.12V5106.31H1942.24C1929.72 5055.78 1912.2 5005.24 1887.03 4958.01Z" fill="url(#paint2_linear_370_229)"/>
<path d="M1952.07 6393.01C1854.95 6216.35 1800.06 6257.96 1741.5 6044.77C1679.25 5818.16 1730.25 5752.54 1656.3 5539.06C1582.37 5325.6 1519.7 5404.33 1445.77 5190.9C1371.82 4977.43 1434.51 4898.67 1360.57 4685.19C1286.64 4471.75 1230.12 4514.1 1173.03 4320.32C1112.14 4113.67 1116.31 3918.07 1004.5 3817C892.688 3918.07 896.865 4113.67 835.983 4320.32C778.876 4514.1 722.357 4471.75 648.421 4685.19C574.495 4898.67 637.171 4977.44 563.234 5190.9C489.298 5404.34 426.633 5325.6 352.676 5539.06C278.75 5752.54 329.732 5818.16 267.49 6044.77C208.929 6257.95 154.039 6216.35 56.9215 6393.01C30.9666 6440.24 12.9105 6490.78 0 6541.31V9204.8H1994.44V6541.31H2009C1996.09 6490.78 1978.02 6440.24 1952.07 6393.01Z" fill="url(#paint3_linear_370_229)"/>
<path d="M1952.07 8208.01C1854.95 8031.35 1800.06 8072.96 1741.5 7859.77C1679.25 7633.16 1730.25 7567.54 1656.3 7354.06C1582.37 7140.6 1519.7 7219.33 1445.77 7005.9C1371.82 6792.43 1434.51 6713.67 1360.57 6500.19C1286.64 6286.75 1230.12 6329.1 1173.03 6135.32C1112.14 5928.67 1116.31 5733.07 1004.5 5632C892.688 5733.07 896.865 5928.67 835.983 6135.32C778.876 6329.1 722.357 6286.75 648.421 6500.19C574.495 6713.67 637.171 6792.44 563.234 7005.9C489.298 7219.34 426.633 7140.6 352.676 7354.06C278.75 7567.54 329.732 7633.16 267.49 7859.77C208.929 8072.95 154.039 8031.35 56.9215 8208.01C30.9666 8255.24 12.9105 8305.78 0 8356.31V11019.8H1994.44V8356.31H2009C1996.09 8305.78 1978.02 8255.24 1952.07 8208.01Z" fill="url(#paint4_linear_370_229)"/>
<path d="M1952.07 10078C1854.95 9901.35 1800.06 9942.96 1741.5 9729.77C1679.25 9503.16 1730.25 9437.54 1656.3 9224.06C1582.37 9010.6 1519.7 9089.33 1445.77 8875.9C1371.82 8662.43 1434.51 8583.67 1360.57 8370.19C1286.64 8156.75 1230.12 8199.1 1173.03 8005.32C1112.14 7798.67 1116.31 7603.07 1004.5 7502C892.688 7603.07 896.865 7798.67 835.983 8005.32C778.876 8199.1 722.357 8156.75 648.421 8370.19C574.495 8583.67 637.171 8662.44 563.234 8875.9C489.298 9089.34 426.633 9010.6 352.676 9224.06C278.75 9437.54 329.732 9503.16 267.49 9729.77C208.929 9942.95 154.039 9901.35 56.9215 10078C30.9666 10125.2 12.9105 10175.8 0 10226.3V12889.8H1994.44V10226.3H2009C1996.09 10175.8 1978.02 10125.2 1952.07 10078Z" fill="url(#paint5_linear_370_229)"/>
<path d="M1952.07 11781C1854.95 11604.4 1800.06 11646 1741.5 11432.8C1679.25 11206.2 1730.25 11140.5 1656.3 10927.1C1582.37 10713.6 1519.7 10792.3 1445.77 10578.9C1371.82 10365.4 1434.51 10286.7 1360.57 10073.2C1286.64 9859.75 1230.12 9902.1 1173.03 9708.32C1112.14 9501.67 1116.31 9306.07 1004.5 9205C892.688 9306.07 896.865 9501.67 835.983 9708.32C778.876 9902.1 722.357 9859.75 648.421 10073.2C574.495 10286.7 637.171 10365.4 563.234 10578.9C489.298 10792.3 426.633 10713.6 352.676 10927.1C278.75 11140.5 329.732 11206.2 267.49 11432.8C208.929 11646 154.039 11604.4 56.9215 11781C30.9666 11828.2 12.9105 11878.8 0 11929.3V14592.8H1994.44V11929.3H2009C1996.09 11878.8 1978.02 11828.2 1952.07 11781Z" fill="url(#paint6_linear_370_229)"/>
<path d="M1952.07 13596C1854.95 13419.4 1800.06 13461 1741.5 13247.8C1679.25 13021.2 1730.25 12955.5 1656.3 12742.1C1582.37 12528.6 1519.7 12607.3 1445.77 12393.9C1371.82 12180.4 1434.51 12101.7 1360.57 11888.2C1286.64 11674.8 1230.12 11717.1 1173.03 11523.3C1112.14 11316.7 1116.31 11121.1 1004.5 11020C892.688 11121.1 896.865 11316.7 835.983 11523.3C778.876 11717.1 722.357 11674.8 648.421 11888.2C574.495 12101.7 637.171 12180.4 563.234 12393.9C489.298 12607.3 426.633 12528.6 352.676 12742.1C278.75 12955.5 329.732 13021.2 267.49 13247.8C208.929 13461 154.039 13419.4 56.9215 13596C30.9666 13643.2 12.9105 13693.8 0 13744.3V16407.8H1994.44V13744.3H2009C1996.09 13693.8 1978.02 13643.2 1952.07 13596Z" fill="url(#paint7_linear_370_229)"/>
<path d="M1952.07 15466C1854.95 15289.4 1800.06 15331 1741.5 15117.8C1679.25 14891.2 1730.25 14825.5 1656.3 14612.1C1582.37 14398.6 1519.7 14477.3 1445.77 14263.9C1371.82 14050.4 1434.51 13971.7 1360.57 13758.2C1286.64 13544.8 1230.12 13587.1 1173.03 13393.3C1112.14 13186.7 1116.31 12991.1 1004.5 12890C892.688 12991.1 896.865 13186.7 835.983 13393.3C778.876 13587.1 722.357 13544.8 648.421 13758.2C574.495 13971.7 637.171 14050.4 563.234 14263.9C489.298 14477.3 426.633 14398.6 352.676 14612.1C278.75 14825.5 329.732 14891.2 267.49 15117.8C208.929 15331 154.039 15289.4 56.9215 15466C30.9666 15513.2 12.9105 15563.8 0 15614.3V18277.8H1994.44V15614.3H2009C1996.09 15563.8 1978.02 15513.2 1952.07 15466Z" fill="url(#paint8_linear_370_229)"/>
<path d="M1952.07 17105C1854.95 16928.4 1800.06 16970 1741.5 16756.8C1679.25 16530.2 1730.25 16464.5 1656.3 16251.1C1582.37 16037.6 1519.7 16116.3 1445.77 15902.9C1371.82 15689.4 1434.51 15610.7 1360.57 15397.2C1286.64 15183.8 1230.12 15226.1 1173.03 15032.3C1112.14 14825.7 1116.31 14630.1 1004.5 14529C892.688 14630.1 896.865 14825.7 835.983 15032.3C778.876 15226.1 722.357 15183.8 648.421 15397.2C574.495 15610.7 637.171 15689.4 563.234 15902.9C489.298 16116.3 426.633 16037.6 352.676 16251.1C278.75 16464.5 329.732 16530.2 267.49 16756.8C208.929 16970 154.039 16928.4 56.9215 17105C30.9666 17152.2 12.9105 17202.8 0 17253.3V19916.8H1994.44V17253.3H2009C1996.09 17202.8 1978.02 17152.2 1952.07 17105Z" fill="url(#paint9_linear_370_229)"/>
<path d="M1952.07 18984C1854.95 18807.4 1800.06 18849 1741.5 18635.8C1679.25 18409.2 1730.25 18343.5 1656.3 18130.1C1582.37 17916.6 1519.7 17995.3 1445.77 17781.9C1371.82 17568.4 1434.51 17489.7 1360.57 17276.2C1286.64 17062.8 1230.12 17105.1 1173.03 16911.3C1112.14 16704.7 1116.31 16509.1 1004.5 16408C892.688 16509.1 896.865 16704.7 835.983 16911.3C778.876 17105.1 722.357 17062.8 648.421 17276.2C574.495 17489.7 637.171 17568.4 563.234 17781.9C489.298 17995.3 426.633 17916.6 352.676 18130.1C278.75 18343.5 329.732 18409.2 267.49 18635.8C208.929 18849 154.039 18807.4 56.9215 18984C30.9666 19031.2 12.9105 19081.8 0 19132.3V21795.8H1994.44V19132.3H2009C1996.09 19081.8 1978.02 19031.2 1952.07 18984Z" fill="url(#paint10_linear_370_229)"/>
</g>
<defs>
<linearGradient id="paint0_linear_370_229" x1="971.23" y1="6944.6" x2="971.23" y2="2107.97" gradientUnits="userSpaceOnUse">
<stop stop-color="#5CA1C5"/>
<stop offset="1" stop-color="#9AD5C2"/>
</linearGradient>
<linearGradient id="paint1_linear_370_229" x1="972.579" y1="6437.86" x2="972.579" y2="1050.05" gradientUnits="userSpaceOnUse">
<stop stop-color="#2498D5" stop-opacity="0.6"/>
<stop offset="1" stop-color="#9AD5C2"/>
</linearGradient>
<linearGradient id="paint2_linear_370_229" x1="968.12" y1="7769.8" x2="968.12" y2="2381.99" gradientUnits="userSpaceOnUse">
<stop stop-color="#2498D5"/>
<stop offset="1" stop-color="#9AD5C2"/>
</linearGradient>
<linearGradient id="paint3_linear_370_229" x1="1004.5" y1="9204.8" x2="1004.5" y2="3816.99" gradientUnits="userSpaceOnUse">
<stop stop-color="#2498D5"/>
<stop offset="1" stop-color="#9AD5C2"/>
</linearGradient>
<linearGradient id="paint4_linear_370_229" x1="1004.5" y1="11019.8" x2="1004.5" y2="5631.99" gradientUnits="userSpaceOnUse">
<stop stop-color="#2498D5"/>
<stop offset="1" stop-color="#9AD5C2"/>
</linearGradient>
<linearGradient id="paint5_linear_370_229" x1="1004.5" y1="12889.8" x2="1004.5" y2="7501.99" gradientUnits="userSpaceOnUse">
<stop stop-color="#2498D5"/>
<stop offset="1" stop-color="#9AD5C2"/>
</linearGradient>
<linearGradient id="paint6_linear_370_229" x1="1004.5" y1="14592.8" x2="1004.5" y2="9204.99" gradientUnits="userSpaceOnUse">
<stop stop-color="#2498D5"/>
<stop offset="1" stop-color="#9AD5C2"/>
</linearGradient>
<linearGradient id="paint7_linear_370_229" x1="1004.5" y1="16407.8" x2="1004.5" y2="11020" gradientUnits="userSpaceOnUse">
<stop stop-color="#2498D5"/>
<stop offset="1" stop-color="#9AD5C2"/>
</linearGradient>
<linearGradient id="paint8_linear_370_229" x1="1004.5" y1="18277.8" x2="1004.5" y2="12890" gradientUnits="userSpaceOnUse">
<stop stop-color="#2498D5"/>
<stop offset="1" stop-color="#9AD5C2"/>
</linearGradient>
<linearGradient id="paint9_linear_370_229" x1="1004.5" y1="19916.8" x2="1004.5" y2="14529" gradientUnits="userSpaceOnUse">
<stop stop-color="#2498D5"/>
<stop offset="1" stop-color="#9AD5C2"/>
</linearGradient>
<linearGradient id="paint10_linear_370_229" x1="1004.5" y1="21795.8" x2="1004.5" y2="16408" gradientUnits="userSpaceOnUse">
<stop stop-color="#2498D5"/>
<stop offset="1" stop-color="#9AD5C2"/>
</linearGradient>
<clipPath id="clip0_370_229">
<rect width="1948" height="21297" fill="white"/>
</clipPath>
</defs>
</svg>
