<svg width="111" height="458" viewBox="0 0 111 458" fill="none" xmlns="http://www.w3.org/2000/svg">
<g style="mix-blend-mode:multiply" opacity="0.6">
<path d="M0.810253 192.257C0.570253 195.897 6.18026 199.827 6.07026 203.477C5.96026 207.127 10.1403 210.627 10.1803 214.287C10.2103 217.937 6.14025 221.507 6.33025 225.147C6.52025 228.807 7.22025 232.267 7.58025 235.897C7.95025 239.667 6.59025 243.507 7.06025 247.157C7.54025 250.917 2.35025 255.477 2.93025 259.097C3.53025 262.847 13.4303 264.887 14.1203 268.487C14.8303 272.227 11.8903 276.537 12.6803 280.117C13.5003 283.837 18.3003 286.437 19.1903 289.987C20.1203 293.687 15.5703 298.667 16.5503 302.177C17.5803 305.867 12.7203 311.257 13.7803 314.727C14.9103 318.407 18.3903 321.347 19.5303 324.767C20.7603 328.447 22.1903 331.987 23.4003 335.377C24.7103 339.057 23.4003 343.607 24.6503 346.927C26.0503 350.637 37.3903 350.307 38.6403 353.567C40.1103 357.357 34.6203 363.457 35.8203 366.627C37.3303 370.637 46.5403 371.527 47.4503 374.527C48.7703 378.877 46.2803 384.087 47.1703 387.767C48.3003 392.467 53.0403 396.027 53.6303 399.477C54.9703 407.407 43.5503 410.197 48.1203 414.457C49.8203 416.037 52.0102 407.717 54.3302 407.717V418.437C56.6502 418.437 54.6503 411.547 56.3403 409.967C60.9103 405.697 55.9802 407.797 57.3302 399.847C57.9102 396.407 64.6402 393.507 65.7702 388.827C66.6602 385.147 65.8003 380.687 67.1203 376.327C68.0403 373.317 70.1702 370.197 71.6902 366.177C72.8802 362.997 70.2302 357.977 71.6902 354.197C72.9502 350.937 79.6102 349.477 81.0002 345.767C82.2502 342.437 81.8802 338.287 83.1902 334.617C84.4002 331.237 82.1503 326.527 83.3703 322.857C84.5103 319.437 85.9703 316.037 87.1003 312.357C88.1603 308.887 94.9202 306.947 95.9402 303.267C96.9202 299.757 99.5603 296.457 100.48 292.747C101.37 289.207 95.8603 284.007 96.6803 280.287C97.4703 276.707 96.8603 272.817 97.5703 269.087C98.2603 265.487 95.1003 261.267 95.7003 257.507C96.2803 253.877 109.68 252.027 110.17 248.267C110.64 244.617 101.25 239.727 101.62 235.947C101.98 232.317 102.39 228.817 102.58 225.167C102.76 221.517 106.41 218.017 106.44 214.367C106.48 210.717 103.33 207.127 103.22 203.477C103.11 199.827 104.68 196.137 104.44 192.497C104.2 188.837 98.4402 185.757 98.0802 182.137C97.7202 178.487 106.84 173.797 106.36 170.197C105.88 166.547 104.85 162.907 104.28 159.327C103.7 155.687 103.18 151.977 102.52 148.427C101.84 144.787 95.5102 142.317 94.7502 138.787C93.9702 135.157 91.9003 131.947 91.0603 128.447C90.2003 124.817 92.1002 120.627 91.1902 117.167C90.2502 113.547 92.1003 109.237 91.1203 105.827C90.0903 102.197 90.3003 98.2571 89.2603 94.8971C88.1503 91.2571 81.9902 89.3571 80.9102 86.0571C79.7002 82.3671 80.1202 78.3871 79.0002 75.1771C77.6702 71.3671 72.9703 69.1971 71.8403 66.1471C70.3103 61.9671 75.9602 55.9271 74.9702 53.3371C73.8002 50.2471 73.6502 47.1571 72.7702 43.9571C71.8802 40.6971 63.0903 39.3571 62.4403 36.1871C61.7503 32.7771 58.7003 29.5871 58.2603 26.4871C57.7303 22.8371 66.2902 18.3271 66.0202 15.4571C65.4702 9.43711 69.9003 2.33711 65.3703 0.317112C61.4103 -1.44289 58.6103 4.69711 54.2803 4.69711V7.06711C49.9503 7.06711 49.4903 3.82711 45.5303 5.59711C40.9903 7.61711 45.2903 9.65711 44.7303 15.6871C44.4703 18.5571 43.5303 21.8171 43.0103 25.4671C42.5703 28.5671 37.7303 30.9571 37.0403 34.3571C36.4003 37.5271 43.8003 42.6671 42.9103 45.9171C42.0303 49.1071 35.1103 50.3771 33.9403 53.4671C32.9603 56.0671 29.1003 58.6071 27.5603 62.8071C26.4403 65.8571 27.1603 70.0971 25.8403 73.8971C24.7203 77.1071 30.2203 82.8371 29.0103 86.5271C27.9303 89.8271 23.0703 92.1071 21.9603 95.7471C20.9303 99.1171 16.6202 101.697 15.5802 105.327C14.6102 108.747 23.2802 114.877 22.3302 118.497C21.4302 121.947 21.2703 125.527 20.4103 129.147C19.5703 132.637 14.8403 135.197 14.0603 138.817C13.3103 142.347 13.1603 145.967 12.4803 149.597C11.8103 153.147 10.8103 156.607 10.2303 160.247C9.66025 163.827 6.03025 166.947 5.55025 170.597C5.08025 174.197 10.6902 178.437 10.3302 182.087C9.97025 185.707 1.00025 188.577 0.760254 192.237L0.810253 192.257Z" fill="#D8E9F0"/>
</g>
<path d="M8.5807 280.747C14.8307 350.327 37.4407 398.847 43.4507 420.577C49.7307 443.287 50.0907 457.287 50.0907 457.287H58.5507C58.5507 457.287 58.9107 443.287 65.2007 420.577C71.2107 398.857 93.8207 350.327 100.071 280.747C107.001 203.677 77.8407 121.007 70.2707 99.0571C62.7007 77.1071 62.2107 50.2971 62.2107 50.2971H46.4207C46.4207 50.2971 45.9407 77.1071 38.3707 99.0571C30.8007 121.007 1.6407 203.677 8.5707 280.747H8.5807Z" fill="url(#paint0_linear_270_115)"/>
<path d="M59.9708 102.617C58.9708 99.7171 58.1108 96.7371 57.3308 93.7571H51.3208C50.5408 96.7371 49.6808 99.7071 48.6808 102.617L48.2508 103.857C24.7508 171.907 15.0508 231.097 19.4408 279.777C24.1208 331.917 38.0808 371.497 47.3208 397.677C48.8708 402.077 50.2308 405.947 51.4008 409.457H57.2608C58.4308 405.947 59.7908 402.077 61.3408 397.677C70.5808 371.487 84.5308 331.917 89.2208 279.777C93.6008 231.097 83.9008 171.907 60.4008 103.857L59.9708 102.617Z" fill="#5C4335"/>
<path d="M27.2307 178.697H81.4307C80.7607 175.497 80.0407 172.267 79.2907 169.007H29.3807C28.6307 172.257 27.9107 175.497 27.2407 178.697H27.2307Z" fill="#9E7156"/>
<path d="M81.6807 328.897H26.9807C27.6907 332.197 28.4307 335.427 29.1907 338.587H79.4807C80.2407 335.437 80.9707 332.207 81.6907 328.897H81.6807Z" fill="#9E7156"/>
<path d="M33.3007 328.897H26.9707C27.6807 332.197 28.4207 335.427 29.1807 338.587H35.0007C34.4207 335.437 33.8507 332.207 33.3107 328.897H33.3007Z" fill="#7A523E"/>
<path d="M33.5007 178.697C34.0207 175.497 34.5707 172.267 35.1407 169.007H29.3707C28.6207 172.257 27.9007 175.497 27.2307 178.697H33.5007Z" fill="#7A523E"/>
<path d="M75.1507 178.697H81.4207C80.7507 175.497 80.0307 172.267 79.2807 169.007H73.5107C74.0807 172.257 74.6407 175.497 75.1607 178.697H75.1507Z" fill="#7A523E"/>
<path d="M75.3506 328.897C74.8006 332.197 74.2306 335.427 73.6506 338.587H79.4706C80.2306 335.437 80.9606 332.207 81.6806 328.897H75.3506Z" fill="#7A523E"/>
<path d="M17.1659 235.553C15.4681 221.132 29.1776 207.667 47.789 205.476C66.4005 203.284 82.8637 213.207 84.5604 227.618C86.257 242.028 72.5487 255.504 53.9372 257.695C35.3258 259.886 18.8637 249.973 17.1659 235.553Z" fill="#402E24"/>
<path d="M33.8571 279.036C33.8571 279.036 35.6565 283.05 35.2024 285.794C34.7483 288.539 33.2153 296.592 32.796 297.23C32.3767 297.867 30.0987 301.691 30.0987 301.691L30.9585 302.586L33.4921 300.932L37.7356 298.196L39.5151 292.899L44.7145 288.89L45.4001 286.151C45.4001 286.151 41.4697 284.09 40.9754 282.267C40.4812 280.444 38.5516 275.104 38.5516 275.104L34.0934 278.806" fill="#EBF1E7"/>
<path d="M71.8552 278.4C71.8552 278.4 69.6666 282.21 69.8437 284.985C70.0243 287.762 70.7485 295.929 71.1013 296.606C71.4542 297.283 73.3439 301.318 73.3439 301.318L72.4008 302.118L70.0434 300.215L66.0914 297.058L64.8481 291.608L60.0727 287.092L59.6622 284.296C59.6622 284.296 63.7767 282.646 64.4502 280.882C65.1237 279.117 67.5718 274.002 67.5718 274.002L71.6426 278.141" fill="#EBF1E7"/>
<path d="M32.0895 284.407L36.0723 283.462L38.1271 281.469L42.6334 277.099L38.8924 263.527L38.5791 259.07L35.3843 257.18L41.3636 255.294L44.1305 252.61L61.0519 216.996L39.5633 214.04L28.3055 231.719L25.2781 250.17L20.9237 253.981C20.9237 253.981 20.7386 257.242 21.6993 259.105C22.66 260.967 32.0963 284.41 32.0963 284.41L32.0895 284.407Z" fill="#05A1D1"/>
<path d="M46.2474 225.515L64.6005 255.781L71.2434 258.398L68.3063 259.636L63.4463 278.404L69.5301 284.724L73.3418 284.756L85.4457 258.326C85.4457 258.326 85.3343 254.535 84.6198 253.715C83.9054 252.894 70.487 228.608 70.487 228.608L50.0748 223.415L46.2506 225.515L46.2474 225.515Z" fill="#05A1D1"/>
<path d="M26.4973 265.081L27.2896 267.032L28.8003 268.124L32.0465 273.185L36.8722 272.356L38.5044 270.172L35.9962 267.401L37.1546 266.993L34.9476 265.428L32.5139 264.395L29.5746 261.802L26.4973 265.081Z" fill="#EBF1E7"/>
<path d="M26.5029 265.1L20.441 246.178L27.49 219.681C27.49 219.681 37.0777 206.459 49.0738 205.187C61.0699 203.915 67.9813 209.035 67.9813 209.035L79.8787 220.762L86.2241 246.015L79.4784 266.001L74.3063 263.723L76.9527 244.798L75.1872 238.834L67.0345 229.331L64.9004 230.843L63.0754 230.617L42.2005 230.443L40.0159 228.571L31.0133 239.303L29.5347 244.117L31.6301 263.683L26.5032 265.103L26.5029 265.1Z" fill="#DAB253"/>
<path d="M49.1817 245.988C47.4841 245.407 46.3552 244.436 45.4287 243.637C44.973 243.247 44.0751 242.471 43.3649 241.493C42.0799 239.721 42.228 238.411 41.5325 234.077C40.7715 229.354 40.2971 229.054 40.4587 226.918C40.6216 224.767 41.2624 223.055 41.7648 221.964C42.2628 221.168 43.1075 220 44.4392 218.91C45.3971 218.124 48.0044 216.047 51.8331 216.112C52.9575 216.134 55.9045 216.361 58.441 218.571C60.3688 220.251 61.0935 222.236 61.5244 223.465C62.4492 226.099 62.2997 228.337 62.1545 230.17C61.8624 233.931 61.2913 234.439 60.3968 237.751C59.4299 241.333 59.1756 241.797 58.9824 242.117C58.6616 242.651 56.7492 245.825 53.1362 246.404C51.3171 246.696 49.8352 246.208 49.1777 245.981L49.1817 245.988Z" fill="white"/>
<path d="M41.788 235.67C42.4655 234.519 43.7421 233.873 45.0223 234.029C46.2067 234.174 47.2818 234.991 47.6127 236.007C47.9677 237.088 47.211 237.566 47.5099 238.641C47.8519 239.861 49.258 240.783 50.6204 240.92C52.5424 241.115 54.3134 239.75 54.686 238.358C54.9485 237.383 54.3814 236.931 54.7841 235.959C55.3362 234.627 56.9607 234.256 57.0273 234.242C58.4291 233.94 59.9677 234.634 60.9121 235.998C61.6496 234.308 63.0188 230.526 62.2402 225.846C61.9151 223.886 61.4253 220.913 59.0378 218.588C55.684 215.319 49.8623 214.457 45.6052 217.022C40.9562 219.823 40.4086 225.363 40.2329 227.157C39.8429 231.109 41.087 234.218 41.782 235.674L41.788 235.67Z" fill="#1C1E21"/>
<path d="M49.768 244.864C49.2272 245.767 49.7981 246.97 49.8665 247.109C49.9775 247.334 50.1978 247.769 50.6865 248.08C51.3084 248.474 52.295 248.622 52.8819 248.138C53.2436 247.841 53.3129 247.297 53.4551 246.213C53.575 245.297 53.6345 244.836 53.4489 244.558C52.8714 243.685 50.5077 243.634 49.7712 244.863L49.768 244.864Z" fill="white"/>
<path d="M78.7776 265.519L78.4634 267.6L77.2477 269.013L75.2694 274.693L70.3866 275.01L68.2889 273.268L70.0818 269.991L68.8604 269.864L70.6434 267.828L72.7671 266.256L75.0202 263.048L78.7776 265.519Z" fill="#EBF1E7"/>
<defs>
<linearGradient id="paint0_linear_270_115" x1="54.3307" y1="139.177" x2="54.3307" y2="436.707" gradientUnits="userSpaceOnUse">
<stop stop-color="#BC8666"/>
<stop offset="1" stop-color="#F1AC82"/>
</linearGradient>
</defs>
</svg>
