<svg width="363" height="458" viewBox="0 0 363 458" fill="none" xmlns="http://www.w3.org/2000/svg">
<g style="mix-blend-mode:multiply">
<path d="M116.81 192.257C116.57 195.897 122.18 199.827 122.07 203.477C121.96 207.127 126.14 210.627 126.18 214.287C126.21 217.937 122.14 221.507 122.33 225.147C122.52 228.807 123.22 232.267 123.58 235.897C123.95 239.667 122.59 243.507 123.06 247.157C123.54 250.917 118.35 255.477 118.93 259.097C119.53 262.847 129.43 264.887 130.12 268.487C130.83 272.227 127.89 276.537 128.68 280.117C129.5 283.837 134.3 286.437 135.19 289.987C136.12 293.687 131.57 298.667 132.55 302.177C133.58 305.867 128.72 311.257 129.78 314.727C130.91 318.407 134.39 321.347 135.53 324.767C136.76 328.447 138.19 331.987 139.4 335.377C140.71 339.057 139.4 343.607 140.65 346.927C142.05 350.637 153.39 350.307 154.64 353.567C156.11 357.357 150.62 363.457 151.82 366.627C153.33 370.637 162.54 371.527 163.45 374.527C164.77 378.877 162.28 384.087 163.17 387.767C164.3 392.467 169.04 396.027 169.63 399.477C170.97 407.407 159.55 410.197 164.12 414.457C165.82 416.037 168.01 407.717 170.33 407.717V418.437C172.65 418.437 170.65 411.547 172.34 409.967C176.91 405.697 171.98 407.797 173.33 399.847C173.91 396.407 180.64 393.507 181.77 388.827C182.66 385.147 181.8 380.687 183.12 376.327C184.04 373.317 186.17 370.197 187.69 366.177C188.88 362.997 186.23 357.977 187.69 354.197C188.95 350.937 195.61 349.477 197 345.767C198.25 342.437 197.88 338.287 199.19 334.617C200.4 331.237 198.15 326.527 199.37 322.857C200.51 319.437 201.97 316.037 203.1 312.357C204.16 308.887 210.92 306.947 211.94 303.267C212.92 299.757 215.56 296.457 216.48 292.747C217.37 289.207 211.86 284.007 212.68 280.287C213.47 276.707 212.86 272.817 213.57 269.087C214.26 265.487 211.1 261.267 211.7 257.507C212.28 253.877 225.68 252.027 226.17 248.267C226.64 244.617 217.25 239.727 217.62 235.947C217.98 232.317 218.39 228.817 218.58 225.167C218.76 221.517 222.41 218.017 222.44 214.367C222.48 210.717 219.33 207.127 219.22 203.477C219.11 199.827 220.68 196.137 220.44 192.497C220.2 188.837 214.44 185.757 214.08 182.137C213.72 178.487 222.84 173.797 222.36 170.197C221.88 166.547 220.85 162.907 220.28 159.327C219.7 155.687 219.18 151.977 218.52 148.427C217.84 144.787 211.51 142.317 210.75 138.787C209.97 135.157 207.9 131.947 207.06 128.447C206.2 124.817 208.1 120.627 207.19 117.167C206.25 113.547 208.1 109.237 207.12 105.827C206.09 102.197 206.3 98.2571 205.26 94.8971C204.15 91.2571 197.99 89.3571 196.91 86.0571C195.7 82.3671 196.12 78.3871 195 75.1771C193.67 71.3671 188.97 69.1971 187.84 66.1471C186.31 61.9671 191.96 55.9271 190.97 53.3371C189.8 50.2471 189.65 47.1571 188.77 43.9571C187.88 40.6971 179.09 39.3571 178.44 36.1871C177.75 32.7771 174.7 29.5871 174.26 26.4871C173.73 22.8371 182.29 18.3271 182.02 15.4571C181.47 9.43711 185.9 2.33711 181.37 0.317112C177.41 -1.44289 174.61 4.69711 170.28 4.69711V7.06711C165.95 7.06711 165.49 3.82711 161.53 5.59711C156.99 7.61711 161.29 9.65711 160.73 15.6871C160.47 18.5571 159.53 21.8171 159.01 25.4671C158.57 28.5671 153.73 30.9571 153.04 34.3571C152.4 37.5271 159.8 42.6671 158.91 45.9171C158.03 49.1071 151.11 50.3771 149.94 53.4671C148.96 56.0671 145.1 58.6071 143.56 62.8071C142.44 65.8571 143.16 70.0971 141.84 73.8971C140.72 77.1071 146.22 82.8371 145.01 86.5271C143.93 89.8271 139.07 92.1071 137.96 95.7471C136.93 99.1171 132.62 101.697 131.58 105.327C130.61 108.747 139.28 114.877 138.33 118.497C137.43 121.947 137.27 125.527 136.41 129.147C135.57 132.637 130.84 135.197 130.06 138.817C129.31 142.347 129.16 145.967 128.48 149.597C127.81 153.147 126.81 156.607 126.23 160.247C125.66 163.827 122.03 166.947 121.55 170.597C121.08 174.197 126.69 178.437 126.33 182.087C125.97 185.707 117 188.577 116.76 192.237L116.81 192.257Z" fill="#D8E9F0"/>
</g>
<path d="M124.58 280.747C130.83 350.327 153.44 398.847 159.45 420.577C165.73 443.287 166.09 457.287 166.09 457.287H174.55C174.55 457.287 174.91 443.287 181.2 420.577C187.21 398.857 209.82 350.327 216.07 280.747C223 203.677 193.84 121.007 186.27 99.0571C178.7 77.1071 178.21 50.2971 178.21 50.2971H162.42C162.42 50.2971 161.94 77.1071 154.37 99.0571C146.8 121.007 117.64 203.677 124.57 280.747H124.58Z" fill="url(#paint0_linear_264_713)"/>
<path d="M175.97 102.617C174.97 99.7171 174.11 96.7371 173.33 93.7571H167.32C166.54 96.7371 165.68 99.7071 164.68 102.617L164.25 103.857C140.75 171.907 131.05 231.097 135.44 279.777C140.12 331.917 154.08 371.497 163.32 397.677C164.87 402.077 166.23 405.947 167.4 409.457H173.26C174.43 405.947 175.79 402.077 177.34 397.677C186.58 371.487 200.53 331.917 205.22 279.777C209.6 231.097 199.9 171.907 176.4 103.857L175.97 102.617Z" fill="#5C4335"/>
<path d="M143.23 178.697H197.43C196.76 175.497 196.04 172.267 195.29 169.007H145.38C144.63 172.257 143.91 175.497 143.24 178.697H143.23Z" fill="#9E7156"/>
<path d="M197.68 328.897H142.98C143.69 332.197 144.43 335.427 145.19 338.587H195.48C196.24 335.437 196.97 332.207 197.69 328.897H197.68Z" fill="#9E7156"/>
<path d="M149.3 328.897H142.97C143.68 332.197 144.42 335.427 145.18 338.587H151C150.42 335.437 149.85 332.207 149.31 328.897H149.3Z" fill="#7A523E"/>
<path d="M149.5 178.697C150.02 175.497 150.57 172.267 151.14 169.007H145.37C144.62 172.257 143.9 175.497 143.23 178.697H149.5Z" fill="#7A523E"/>
<path d="M191.15 178.697H197.42C196.75 175.497 196.03 172.267 195.28 169.007H189.51C190.08 172.257 190.64 175.497 191.16 178.697H191.15Z" fill="#7A523E"/>
<path d="M191.35 328.897C190.8 332.197 190.23 335.427 189.65 338.587H195.47C196.23 335.437 196.96 332.207 197.68 328.897H191.35Z" fill="#7A523E"/>
<path d="M135.63 231.427C135.63 216.907 150.82 205.137 169.56 205.137C188.3 205.137 203.49 216.917 203.49 231.427C203.49 245.937 188.3 257.717 169.56 257.717C150.82 257.717 135.63 245.947 135.63 231.427Z" fill="#402E24"/>
<path d="M147.122 276.564C147.122 276.564 148.44 280.761 147.668 283.433C146.896 286.105 144.432 293.925 143.941 294.508C143.45 295.092 140.74 298.624 140.74 298.624L141.49 299.613L144.199 298.267L148.733 296.046L151.12 290.993L156.753 287.62L157.754 284.98C157.754 284.98 154.091 282.473 153.814 280.605C153.536 278.737 152.244 273.208 152.244 273.208L147.384 276.363" fill="#EBF1E7"/>
<path d="M184.934 280.375C184.934 280.375 182.315 283.904 182.166 286.68C182.021 289.459 181.785 297.654 182.057 298.368C182.328 299.081 183.733 303.31 183.733 303.31L182.702 303.995L180.584 301.828L177.028 298.232L176.431 292.673L172.216 287.63L172.135 284.805C172.135 284.805 176.414 283.647 177.29 281.974C178.165 280.3 181.194 275.507 181.194 275.507L184.753 280.093" fill="#EBF1E7"/>
<path d="M144.739 281.692L148.805 281.218L151.078 279.48L156.065 275.666L153.937 261.75L154.146 257.287L151.195 255.036L157.353 253.862L160.415 251.521L181.385 218.129L160.389 212.681L147.141 228.923L141.977 246.893L137.207 250.168C137.207 250.168 136.642 253.386 137.378 255.348C138.115 257.31 144.745 281.695 144.745 281.695L144.739 281.692Z" fill="#05A1D1"/>
<path d="M165.686 224.859L180.374 257.063L186.665 260.439L183.603 261.325L176.582 279.396L181.885 286.385L185.667 286.861L200.778 262.029C200.778 262.029 201.111 258.25 200.497 257.352C199.884 256.454 189.397 230.765 189.397 230.765L169.732 223.221L165.689 224.859H165.686Z" fill="#05A1D1"/>
<g style="mix-blend-mode:multiply">
<path d="M281.117 163.764C277.416 168.324 260.572 175.294 255.974 181.961C251.365 188.627 184.621 279.957 184.621 279.957L183.579 279.237L182.538 278.517C182.538 278.517 244.329 183.761 248.935 177.105C253.543 170.44 254.093 152.222 257.04 147.154C260 142.078 280.378 120.194 280.378 120.194L289.216 126.309L298.056 132.414C298.056 132.414 284.806 159.222 281.116 163.774L281.117 163.764Z" fill="#B9D8E6"/>
</g>
<path d="M289.278 171.314C285.252 175.583 267.948 181.296 262.864 187.604C257.78 193.912 184.506 280.09 184.506 280.09L183.518 279.297L182.53 278.505C182.53 278.505 251.115 188.552 256.198 182.244C261.282 175.936 263.165 157.81 266.489 152.97C269.813 148.131 291.745 127.808 291.745 127.808L300.108 134.55L308.483 141.285C308.483 141.285 293.293 167.052 289.276 171.323L289.278 171.314Z" fill="#FCC8AE"/>
<g style="mix-blend-mode:multiply">
<path d="M80.0096 136.942C82.7765 142.122 82.6661 160.351 87.027 167.176C91.3825 174.009 149.665 270.959 149.665 270.959L148.597 271.64L147.529 272.32C147.529 272.32 84.1678 178.607 79.8207 171.779C75.4652 164.946 58.887 157.372 55.3599 152.689C51.8298 147.992 39.5654 120.72 39.5654 120.72L48.6306 114.946L57.6873 109.168C57.6873 109.168 77.2541 131.78 80.018 136.947L80.0096 136.942Z" fill="#B9D8E6"/>
</g>
<path d="M90.1338 132.349C92.5071 137.717 91.0587 155.881 94.9004 163.014C98.742 170.147 149.742 271.116 149.742 271.116L148.628 271.719L147.515 272.323C147.515 272.323 91.2162 174.211 87.3746 167.079C83.5329 159.946 67.5566 151.178 64.3859 146.236C61.2152 141.295 50.9927 113.196 50.9927 113.196L60.4518 108.104L69.9078 102.999C69.9078 102.999 87.7636 126.995 90.1422 132.355L90.1338 132.349Z" fill="#FCC8AE"/>
<path d="M141.444 261.844L142.003 263.874L143.376 265.135L146.008 270.542L150.897 270.282L152.774 268.304L150.607 265.259L151.805 264.989L149.796 263.177L147.5 261.866L144.884 258.948L141.444 261.844Z" fill="#EBF1E7"/>
<path d="M141.448 261.863L137.64 242.362L147.739 216.871C147.739 216.871 158.807 204.862 170.869 205.001C182.932 205.141 189.197 211.033 189.197 211.033L199.642 224.071L202.991 249.893L193.955 268.953L189.084 266.086L193.926 247.6L192.869 241.47L185.884 231.079L183.588 232.331L181.802 231.893L161.09 229.279L159.14 227.165L148.944 236.771L146.912 241.379L146.706 261.056L141.448 261.866V261.863Z" fill="#DAB253"/>
<path d="M166.206 245.534C164.588 244.759 163.58 243.663 162.753 242.761C162.346 242.32 161.545 241.444 160.954 240.39C159.885 238.48 160.186 237.196 160.002 232.811C159.798 228.031 159.362 227.677 159.772 225.576C160.186 223.458 161.022 221.833 161.649 220.808C162.237 220.075 163.212 219.015 164.662 218.087C165.705 217.419 168.537 215.661 172.332 216.174C173.446 216.326 176.347 216.897 178.607 219.388C180.325 221.282 180.813 223.338 181.097 224.609C181.708 227.333 181.298 229.539 180.939 231.342C180.209 235.042 179.583 235.48 178.307 238.665C176.928 242.109 176.621 242.541 176.392 242.836C176.011 243.329 173.74 246.257 170.084 246.41C168.244 246.487 166.829 245.829 166.202 245.527L166.206 245.534Z" fill="white"/>
<path d="M160.069 234.423C160.877 233.359 162.22 232.866 163.473 233.171C164.633 233.453 165.605 234.391 165.815 235.438C166.041 236.554 165.233 236.94 165.405 238.042C165.602 239.294 166.89 240.374 168.227 240.669C170.113 241.088 172.032 239.94 172.565 238.6C172.939 237.663 172.429 237.147 172.942 236.229C173.646 234.971 175.303 234.793 175.371 234.786C176.799 234.65 178.245 235.519 179.024 236.985C179.954 235.393 181.756 231.796 181.53 227.058C181.436 225.073 181.297 222.063 179.198 219.475C176.25 215.837 170.569 214.299 166.041 216.349C161.096 218.587 159.905 224.025 159.52 225.786C158.671 229.665 159.543 232.899 160.063 234.426L160.069 234.423Z" fill="#1C1E21"/>
<path d="M166.919 244.487C166.277 245.32 166.703 246.582 166.755 246.728C166.839 246.964 167.007 247.422 167.456 247.788C168.027 248.252 168.99 248.515 169.629 248.103C170.023 247.85 170.155 247.318 170.424 246.257C170.65 245.362 170.763 244.911 170.611 244.613C170.139 243.679 167.798 243.351 166.923 244.487H166.919Z" fill="white"/>
<path d="M193.315 268.392L192.76 270.422L191.387 271.683L188.758 277.093L183.872 276.837L181.992 274.862L184.156 271.816L182.958 271.547L184.967 269.734L187.26 268.421L189.872 265.499L193.315 268.392Z" fill="#EBF1E7"/>
<defs>
<linearGradient id="paint0_linear_264_713" x1="170.33" y1="139.177" x2="170.33" y2="436.707" gradientUnits="userSpaceOnUse">
<stop stop-color="#BC8666"/>
<stop offset="1" stop-color="#F1AC82"/>
</linearGradient>
</defs>
</svg>
