<svg width="786" height="733" viewBox="0 0 786 733" fill="none" xmlns="http://www.w3.org/2000/svg">
<path d="M382.769 121.33L429.108 254.935L432.42 153.239C496.392 197.479 555.859 251.175 607.325 314.348L636.83 424.713L643.432 362.196C714.728 464.231 765.986 587.67 785.259 732.492L477.327 390.049L0.0109863 0C125.221 7.69583 260.226 48.1973 382.769 121.34V121.33Z" fill="url(#paint0_linear_181_150)"/>
<path d="M521.753 525.732L428.288 515.664C392.345 487.373 357.342 457.749 323.673 427.195L441.329 396.007L271.136 377.675C238.341 345.525 207.274 312.687 178.491 279.553L279.324 255.974L143.061 237.226C78.0842 156.387 27.799 75.1327 0 0C497.649 252.126 785.248 732.492 785.248 732.492C679.332 688.088 567.567 620.968 462.001 541.572L521.742 525.732H521.753Z" fill="url(#paint1_linear_181_150)"/>
<defs>
<linearGradient id="paint0_linear_181_150" x1="405.207" y1="416.506" x2="304.303" y2="-45.4566" gradientUnits="userSpaceOnUse">
<stop stop-color="#115741"/>
<stop offset="1" stop-color="#86BF6A"/>
</linearGradient>
<linearGradient id="paint1_linear_181_150" x1="505.701" y1="504.476" x2="163.626" y2="142.352" gradientUnits="userSpaceOnUse">
<stop stop-color="#115741"/>
<stop offset="1" stop-color="#86BF6A"/>
</linearGradient>
</defs>
</svg>
