<svg width="164" height="164" viewBox="0 0 164 164" fill="none" xmlns="http://www.w3.org/2000/svg">
<path d="M163.079 79.0448L86.9955 78.5091L149.841 37.2096C125.136 -0.373136 74.6429 -10.8237 37.0492 13.8816C-0.522627 38.576 -10.9732 89.0799 13.7321 126.674C38.4375 164.256 88.9413 174.696 126.513 150.002C151.164 133.801 164.03 106.516 163.079 79.0448Z" fill="url(#paint0_linear_162_138)"/>
<path d="M163.079 79.0448L86.9954 78.5092L3.40173 104.034C5.60991 111.872 9.03151 119.513 13.7321 126.674C38.4374 164.256 88.9413 174.696 126.513 150.002C151.164 133.801 164.03 106.516 163.079 79.0448Z" fill="url(#paint1_linear_162_138)"/>
<defs>
<linearGradient id="paint0_linear_162_138" x1="189.894" y1="66.2002" x2="-21.6503" y2="97.1543" gradientUnits="userSpaceOnUse">
<stop stop-color="#36814D"/>
<stop offset="1" stop-color="#86BF6A"/>
</linearGradient>
<linearGradient id="paint1_linear_162_138" x1="63.4018" y1="64.7253" x2="121.643" y2="153.322" gradientUnits="userSpaceOnUse">
<stop stop-color="#36814D"/>
<stop offset="1" stop-color="#86BF6A"/>
</linearGradient>
</defs>
</svg>
