<svg width="910" height="358" viewBox="0 0 910 358" fill="none" xmlns="http://www.w3.org/2000/svg">
<path d="M357.2 5.47901L443.964 97.7415L409.464 13.4044C477.939 26.1506 546.185 48.2871 611.359 81.0818L675.833 160.5L658.365 106.979C753.961 164.293 841.021 246.411 909.758 357.716L559.751 205.92L0 46.3412C105.151 6.81267 230.306 -9.45346 357.2 5.46813V5.47901Z" fill="url(#paint0_linear_181_146)"/>
<path d="M618.749 285.152L538.675 311.115C498.95 301.156 459.487 289.744 420.811 277.085L505.563 208.555L359.769 255.834C321.202 241.568 283.784 226.078 248.136 209.539L321.924 153.372L203.71 187.883C121.034 145.611 50.1978 97.5993 0 46.3521C498.961 70.3469 909.758 357.716 909.758 357.716C806.958 360.186 691.05 346.205 575.722 319.947L618.749 285.152Z" fill="url(#paint1_linear_181_146)"/>
<defs>
<linearGradient id="paint0_linear_181_146" x1="515.329" y1="381.754" x2="358.004" y2="-85.9492" gradientUnits="userSpaceOnUse">
<stop stop-color="#115741"/>
<stop offset="1" stop-color="#86BF6A"/>
</linearGradient>
<linearGradient id="paint1_linear_181_146" x1="590.354" y1="360.588" x2="329.106" y2="54.739" gradientUnits="userSpaceOnUse">
<stop stop-color="#115741"/>
<stop offset="1" stop-color="#86BF6A"/>
</linearGradient>
</defs>
</svg>
