<svg width="530" height="1408" viewBox="0 0 530 1408" fill="none" xmlns="http://www.w3.org/2000/svg">
<path d="M349.396 378.881L335.928 579.871L386.992 449.135C433.995 543.728 471.804 648.035 496.71 760.097L476.294 921.047L512.53 843.283C540.231 1017.47 536.734 1208.03 489.426 1408L323.757 783.854L1.18408 0C130.051 82.1879 253.941 212.868 349.396 378.881Z" fill="url(#paint0_linear_181_158)"/>
<path d="M307.311 986.443L213.169 919.428C188.354 861.825 165.189 802.979 143.856 743.757L282.924 770.902L111.437 648.901C91.7686 588.078 74.2533 527.313 59.3035 467.489L177.023 494.897L41.6202 391.87C10.6518 248.973 -4.55756 114.001 1.1994 0C409.791 615.713 489.457 1408 489.457 1408C398.155 1289.05 311.281 1137.06 236.716 972.664L307.311 986.443Z" fill="url(#paint1_linear_181_158)"/>
<defs>
<linearGradient id="paint0_linear_181_158" x1="393.938" y1="1136.01" x2="180.172" y2="402.373" gradientUnits="userSpaceOnUse">
<stop stop-color="#0D4736"/>
<stop offset="1" stop-color="#86BF6A"/>
</linearGradient>
<linearGradient id="paint1_linear_181_158" x1="299.308" y1="911.282" x2="-7.91685" y2="301.52" gradientUnits="userSpaceOnUse">
<stop stop-color="#0D4736"/>
<stop offset="1" stop-color="#86BF6A"/>
</linearGradient>
</defs>
</svg>
