<svg width="706" height="1022" viewBox="0 0 706 1022" fill="none" xmlns="http://www.w3.org/2000/svg">
<path d="M383.058 217.045L409.532 385.053L430.056 264.482C490.067 329.317 543.736 404.555 587.404 489.589L600.012 626.668L617.456 553.431C675.489 688.51 708.843 845.314 704.925 1021.55L437.749 555.18L0.026123 0.0150146C130.678 32.8845 266.18 106.73 383.071 217.075L383.058 217.045Z" fill="url(#paint0_linear_181_154)"/>
<path d="M461.811 725.276L365.011 695.578C331.867 655.062 299.954 613.138 269.574 570.354L398.798 555.476L222.511 501.4C193.324 456.897 166.077 411.861 141.281 366.914L251.514 357.918L111.059 309.77C56.0931 201.159 16.6969 94.7997 0 0C482.23 394.685 704.899 1021.55 704.899 1021.55C600.707 948.59 494.156 847.448 396.19 732.834L461.798 725.276H461.811Z" fill="url(#paint1_linear_181_154)"/>
<defs>
<linearGradient id="paint0_linear_181_154" x1="567.669" y1="824.525" x2="238.718" y2="280.104" gradientUnits="userSpaceOnUse">
<stop stop-color="#0D4736"/>
<stop offset="1" stop-color="#86BF6A"/>
</linearGradient>
<linearGradient id="paint1_linear_181_154" x1="440.245" y1="665.917" x2="69.7044" y2="231.863" gradientUnits="userSpaceOnUse">
<stop stop-color="#0D4736"/>
<stop offset="1" stop-color="#86BF6A"/>
</linearGradient>
</defs>
</svg>
