<svg width="508" height="208" viewBox="0 0 508 208" fill="none" xmlns="http://www.w3.org/2000/svg">
<path d="M507.243 197.604C507.243 197.604 505.527 196.696 502.291 194.991C499.034 193.286 494.234 190.848 488.124 187.864C482.046 184.781 474.514 181.381 465.944 177.304C457.253 173.543 447.589 168.93 436.778 164.558C431.389 162.317 425.781 159.999 419.965 157.594C414.095 155.353 408.028 153.025 401.797 150.631C389.379 145.712 375.977 141.295 362.225 136.431C348.407 131.839 334.021 127.303 319.329 122.974C311.929 120.952 304.495 118.94 297.018 116.896L285.769 113.846L274.411 111.201C259.238 107.735 244.12 103.997 229.002 101.504C221.47 100.116 213.993 98.7276 206.614 97.3721C199.202 96.1149 191.824 95.2514 184.587 94.3222C177.339 93.4258 170.223 92.5404 163.259 91.6877C156.274 90.9444 149.387 90.6273 142.719 90.2447C129.35 89.5888 116.756 88.4847 105.071 88.9001C93.3957 88.9438 82.7046 89.1187 73.2488 88.9657C63.793 89.5123 55.5396 90.0151 48.7511 90.4087C41.9736 90.9334 36.6389 90.988 32.944 90.4087C29.2491 89.9277 27.2268 89.1843 27.2268 89.1843L27.9812 97.7765C27.9812 97.7765 29.8285 96.8474 33.3703 95.9947C36.9231 95.0546 42.214 94.6064 48.9697 94.4315C55.7036 94.2019 63.9023 93.9177 73.3034 93.5679C82.7155 93.7975 93.3191 94.3878 104.863 94.8797C116.428 95.0655 128.88 96.8365 142.041 98.1811C148.611 99.0009 155.4 99.4163 162.297 100.335C169.151 101.373 176.17 102.422 183.319 103.505C190.435 104.685 197.748 105.429 205.062 106.751C212.364 108.151 219.743 109.55 227.198 110.96C242.142 113.507 257.096 117.3 272.094 120.809L283.332 123.488L294.438 126.581C301.828 128.625 309.207 130.67 316.498 132.692C331.015 137.13 345.314 141.448 359.033 145.985C372.654 150.762 385.946 155.069 398.288 159.923C404.486 162.273 410.51 164.547 416.347 166.755C422.119 169.094 427.727 171.346 433.05 173.521C443.84 177.708 453.471 182.136 462.139 185.765C470.688 189.667 478.198 192.936 484.254 195.877C490.365 198.762 495.098 201.091 498.29 202.698C501.493 204.327 503.209 205.201 503.209 205.201L507.243 197.571V197.604Z" fill="#133D26"/>
<path d="M148.753 90.4414C148.753 90.4414 147.288 90.9442 144.555 92.0702C141.79 93.1087 138.084 94.7266 133.602 96.6615C131.405 97.689 129.011 98.8259 126.496 100.007C123.971 101.165 121.304 102.379 118.637 103.811C115.958 105.21 113.193 106.653 110.361 108.107C107.519 109.528 104.83 111.332 101.999 112.862C99.2003 114.447 96.4018 116.032 93.658 117.585C90.9688 119.279 88.3344 120.962 85.8092 122.569C83.2512 124.165 80.7916 125.718 78.4413 127.193C76.0582 128.593 74.0795 130.309 72.0353 131.61C68.0671 134.343 64.438 136.19 61.7707 137.305C59.0924 138.453 57.3324 138.814 57.3324 138.814L62.5687 145.679C62.5687 145.679 63.4213 144.214 65.3125 142.093C67.1709 139.95 70.0677 137.185 73.9266 134.364C75.8615 132.965 77.9056 131.38 80.2778 129.992C82.6171 128.56 85.0657 127.062 87.6019 125.499C90.1598 123.969 92.8054 122.362 95.4836 120.766C98.2602 119.312 101.07 117.858 103.912 116.393C106.743 114.939 109.531 113.441 112.406 112.206C115.281 110.982 118.101 109.747 120.823 108.555C126.256 106.139 131.503 104.379 135.985 102.816C140.511 101.471 144.282 100.236 146.884 99.6895C149.464 99.0554 151.071 98.7603 151.071 98.7603L148.764 90.4414H148.753Z" fill="#133D26"/>
<path d="M54.6651 160.731C59.1033 157.069 68.2968 143.372 64.6237 138.945C60.9507 134.506 45.7886 141.011 41.3504 144.673C36.9231 148.335 36.3 154.916 39.973 159.365C43.6569 163.792 50.2378 164.426 54.6651 160.731Z" fill="#DF3966"/>
<path d="M13.5623 107.396C19.203 106.205 33.7093 98.3451 32.5068 92.7154C31.3043 87.0747 14.8523 85.7956 9.2225 86.9981C3.57087 88.1897 -0.0255962 93.7429 1.17688 99.3727C2.36842 105.002 7.91067 108.599 13.5514 107.396H13.5623Z" fill="#DF3966"/>
<path d="M114.297 92.2124C112.526 90.9771 110.558 89.5778 108.35 88.0146C106.404 86.5388 104.294 84.9429 102.086 83.2594C99.8452 81.6197 97.495 79.8706 95.1884 77.9029C92.8491 76.0008 90.4333 74.0113 87.9846 71.9999C85.514 70.0213 83.2511 67.7038 80.8025 65.6268C78.3866 63.4951 75.9817 61.3744 73.5986 59.2646C71.3358 57.0564 69.1167 54.8701 66.9632 52.7712C64.7878 50.6724 62.7107 48.6501 60.7212 46.7261C58.677 44.8568 57.0809 42.7579 55.3756 41.0854C52.0633 37.5873 48.8932 35.0184 46.4992 33.3677C44.1161 31.717 42.4764 30.9846 42.4764 30.9846L49.0244 25.333C49.0244 25.333 49.5492 26.9509 50.9703 29.4214C52.3477 31.8919 54.5996 35.2151 57.8025 38.7679C59.3876 40.5388 61.071 42.5065 63.1043 44.3539C65.0829 46.2341 67.1708 48.2128 69.3462 50.2679C71.5325 52.3012 73.7735 54.4 76.0582 56.5426C78.4631 58.5322 80.9446 60.5545 83.3823 62.555C85.8528 64.5664 88.2797 66.6215 90.8268 68.4252C93.3848 70.2399 95.8771 71.9999 98.3039 73.738C103.114 77.2251 107.891 80.0455 111.957 82.4942C116.101 84.7461 119.533 86.7356 121.96 87.8178C124.354 88.9766 125.873 89.5997 125.873 89.5997L124.529 92.1795L114.297 92.2342V92.2124Z" fill="#133D26"/>
<path d="M44.4004 8.96834C47.9859 13.494 54.1403 28.7873 49.6256 32.351C45.1108 35.9475 31.6213 26.448 28.0576 21.9332C24.472 17.4185 25.2264 10.8704 29.7302 7.27396C34.2668 3.6884 40.8258 4.45359 44.4004 8.95739V8.96834Z" fill="#DF3966"/>
<path d="M171.764 97.7656C170.19 96.3117 168.419 94.6609 166.44 92.8026C164.713 91.0863 162.844 89.2061 160.887 87.2494C158.898 85.3036 156.799 83.2703 154.776 81.0184C152.721 78.7993 150.579 76.5146 148.425 74.1643C146.228 71.8796 144.315 69.2779 142.15 66.8729C140.062 64.468 137.953 62.0084 135.887 59.6143C133.941 57.111 132.028 54.6405 130.191 52.2574C128.333 49.8853 126.54 47.5896 124.835 45.4252C123.053 43.3045 121.774 41.0088 120.287 39.1177C117.467 35.1823 114.69 32.2198 112.548 30.2849C110.394 28.3063 108.875 27.3662 108.875 27.3662L116.133 22.6656C116.133 22.6656 116.439 24.3491 117.511 26.9617C118.538 29.5853 120.331 33.2037 122.987 37.1609C124.332 39.1286 125.731 41.3039 127.491 43.4028C129.208 45.5345 131.011 47.7754 132.87 50.1039C134.783 52.4104 136.718 54.7935 138.696 57.2203C140.817 59.5269 142.981 61.8444 145.146 64.1947C147.31 66.5012 149.453 68.8624 151.726 70.9941C154.011 73.1257 156.252 75.2247 158.406 77.2689C162.702 81.3791 167.063 84.8117 170.758 87.796C174.563 90.5835 177.689 93.0213 179.963 94.4205C182.16 95.8853 183.581 96.7161 183.581 96.7161L181.919 99.0992L171.764 97.7546V97.7656Z" fill="#133D26"/>
<path d="M113.772 5.86385C116.702 10.8159 120.735 26.7978 115.783 29.7274C110.831 32.6789 98.7411 21.4194 95.8115 16.4784C92.8818 11.5264 94.5107 5.12051 99.4736 2.17991C104.426 -0.749747 110.831 0.879052 113.772 5.86385Z" fill="#DF3966"/>
<path d="M234.774 106.806C233.353 105.188 231.768 103.363 229.975 101.307C228.433 99.4273 226.783 97.383 225.023 95.2186C223.241 93.0869 221.361 90.8569 219.59 88.3864C217.753 85.9814 215.884 83.4781 213.96 80.9529C212.014 78.4277 210.363 75.6511 208.472 73.0493C206.636 70.4148 204.788 67.7694 202.996 65.1677C201.323 62.4895 199.661 59.844 198.065 57.297C196.459 54.739 194.906 52.2794 193.441 49.94C191.889 47.6663 190.829 45.2394 189.561 43.2062C187.156 39.0303 184.685 35.7836 182.761 33.6301C180.826 31.4328 179.416 30.3397 179.416 30.3397L187.101 26.4153C187.101 26.4153 187.232 28.1206 188.019 30.8426C188.796 33.5427 190.206 37.325 192.458 41.5337C193.584 43.6435 194.764 45.95 196.295 48.2238C197.77 50.5194 199.355 52.9353 200.962 55.4386C202.613 57.931 204.307 60.489 206.013 63.1016C207.893 65.6159 209.806 68.152 211.741 70.6881C213.654 73.2352 215.523 75.7932 217.6 78.1216C219.644 80.4938 221.667 82.8113 223.613 85.0413C227.46 89.5888 231.45 93.4477 234.796 96.7709C238.315 99.941 241.169 102.685 243.278 104.303C245.334 105.997 246.667 106.948 246.667 106.948L244.743 109.156L234.796 106.806H234.774Z" fill="#133D26"/>
<path d="M186.434 9.44949C188.85 14.6748 191.255 31.0175 186.008 33.4224C180.794 35.8383 169.906 23.431 167.49 18.2057C165.074 12.9695 167.348 6.78223 172.573 4.36635C177.809 1.95047 184.018 4.2242 186.423 9.44949H186.434Z" fill="#DF3966"/>
<path d="M311.404 126.122C309.972 124.515 308.376 122.69 306.594 120.645C305.053 118.754 303.391 116.71 301.631 114.535C299.849 112.425 297.98 110.173 296.198 107.713C294.373 105.308 292.481 102.816 290.579 100.258C288.633 97.7546 286.983 94.9889 285.081 92.3763C283.255 89.7418 281.408 87.0964 279.593 84.4837C277.92 81.8164 276.259 79.171 274.674 76.6239C273.067 74.0659 271.515 71.6064 270.028 69.2779C268.486 66.9932 267.448 64.5664 266.169 62.5441C263.753 58.3354 261.294 55.1215 259.359 52.957C257.435 50.7707 256.003 49.6885 256.003 49.6885L263.699 45.7532C263.699 45.7532 263.841 47.4585 264.628 50.1695C265.393 52.8915 266.814 56.6628 269.066 60.8824C270.192 62.9594 271.372 65.277 272.903 67.5617C274.39 69.8354 275.942 72.2513 277.56 74.7546C279.21 77.2579 280.905 79.8159 282.621 82.4395C284.49 84.9429 286.414 87.479 288.327 90.026C290.24 92.5512 292.132 95.1201 294.187 97.4595C296.242 99.8316 298.253 102.138 300.199 104.379C304.047 108.916 308.026 112.775 311.393 116.109C314.902 119.29 317.766 122.012 319.876 123.641C321.92 125.324 323.254 126.286 323.254 126.286L321.341 128.483L311.393 126.111L311.404 126.122Z" fill="#133D26"/>
<path d="M263.065 28.7763C265.469 33.9907 267.863 50.3225 262.649 52.7274C257.424 55.1652 246.525 42.7469 244.109 37.5216C241.715 32.2744 243.989 26.0762 249.225 23.6713C254.44 21.2554 260.649 23.5401 263.075 28.7763H263.065Z" fill="#DF3966"/>
<path d="M382.612 152.358C381.399 150.565 380.065 148.554 378.567 146.291C377.267 144.214 375.889 141.962 374.424 139.59C372.927 137.261 371.364 134.791 369.91 132.135C368.401 129.5 366.871 126.778 365.297 124.012C363.679 121.279 362.422 118.295 360.869 115.464C359.394 112.622 357.907 109.768 356.442 106.959C355.13 104.084 353.829 101.242 352.572 98.498C351.315 95.787 350.091 93.1197 348.932 90.6164C347.697 88.1458 346.964 85.6206 345.959 83.4343C344.111 78.9852 342.089 75.4433 340.449 73.0603C338.82 70.6444 337.541 69.3873 337.541 69.3873L345.674 66.4795C345.674 66.4795 345.609 68.1739 346.035 70.9724C346.429 73.7708 347.336 77.6952 349.019 82.1553C349.883 84.3744 350.736 86.8122 351.982 89.2827C353.141 91.7314 354.387 94.3331 355.677 97.0441C356.989 99.7224 358.322 102.499 359.7 105.297C361.23 108.019 362.815 110.796 364.389 113.573C365.963 116.316 367.494 119.115 369.232 121.695C370.97 124.307 372.664 126.855 374.304 129.325C377.54 134.321 380.983 138.672 383.902 142.41C386.974 146.007 389.444 149.078 391.336 150.97C393.15 152.904 394.342 154.041 394.342 154.041L392.177 155.965L382.612 152.347V152.358Z" fill="#133D26"/>
<path d="M347.259 49.5793C348.965 55.0669 349.238 71.5736 343.74 73.2789C338.241 75.017 329.058 61.3089 327.331 55.8103C325.637 50.3117 328.698 44.4524 334.196 42.7361C339.684 40.998 345.543 44.0807 347.27 49.5793H347.259Z" fill="#DF3966"/>
<path d="M190.042 99.6567C188.129 100.641 185.975 101.777 183.592 103.024C181.471 104.237 179.176 105.549 176.749 106.915C174.311 108.26 171.753 109.67 169.206 111.321C166.637 112.906 163.981 114.556 161.281 116.24C158.559 117.88 156.034 119.869 153.312 121.618C150.644 123.4 147.966 125.204 145.353 126.964C142.806 128.855 140.314 130.724 137.898 132.539C135.482 134.343 133.143 136.07 130.924 137.71C128.661 139.284 126.813 141.164 124.879 142.596C121.118 145.635 117.675 147.767 115.073 149.078C112.482 150.423 110.777 150.926 110.777 150.926L116.527 157.386C116.527 157.386 117.259 155.834 118.976 153.593C120.681 151.33 123.348 148.335 126.966 145.209C128.792 143.667 130.727 141.94 132.968 140.366C135.176 138.759 137.516 137.076 139.931 135.326C142.369 133.599 144.883 131.796 147.43 130.003C150.098 128.352 152.787 126.68 155.487 124.985C158.198 123.324 160.876 121.618 163.642 120.164C166.419 118.721 169.13 117.289 171.753 115.901C176.989 113.059 182.083 110.883 186.445 109.003C190.851 107.309 194.513 105.8 197.049 105.035C199.574 104.204 201.17 103.789 201.17 103.789L200.175 101.045L190.053 99.6567H190.042Z" fill="#133D26"/>
<path d="M109.804 172.986C113.947 168.974 122.058 154.632 118.068 150.489C114.067 146.324 99.4407 153.987 95.2868 157.977C91.1546 161.989 91.0563 168.591 95.0463 172.734C99.0582 176.867 105.661 176.987 109.804 172.975V172.986Z" fill="#DF3966"/>
<path d="M250.242 114.239C248.438 115.409 246.416 116.754 244.164 118.251C242.174 119.672 240.043 121.214 237.769 122.832C235.495 124.406 233.079 126.067 230.718 127.97C228.324 129.828 225.843 131.73 223.317 133.665C220.77 135.578 218.464 137.83 215.949 139.83C213.479 141.874 210.997 143.951 208.571 145.985C206.253 148.127 203.958 150.226 201.738 152.281C199.508 154.304 197.377 156.271 195.333 158.13C193.223 159.912 191.583 161.978 189.812 163.617C186.38 167.006 183.166 169.466 180.717 171.04C178.29 172.636 176.629 173.325 176.629 173.325L183.002 179.151C183.002 179.151 183.581 177.544 185.057 175.128C186.511 172.712 188.883 169.455 192.173 165.989C193.813 164.251 195.54 162.349 197.639 160.546C199.672 158.731 201.826 156.818 204.045 154.839C206.297 152.861 208.604 150.838 210.954 148.761C213.435 146.848 215.95 144.902 218.475 142.957C220.989 141.033 223.481 139.043 226.083 137.338C228.696 135.6 231.232 133.894 233.713 132.255C238.633 128.899 243.497 126.22 247.618 123.903C251.849 121.782 255.336 119.88 257.796 118.885C260.222 117.803 261.764 117.213 261.764 117.213L260.496 114.589L250.275 114.229L250.242 114.239Z" fill="#133D26"/>
<path d="M177.897 195.363C181.602 190.957 188.227 175.839 183.821 172.144C179.416 168.416 165.642 177.522 161.926 181.917C158.22 186.322 158.788 192.903 163.194 196.609C167.588 200.315 174.191 199.768 177.897 195.352V195.363Z" fill="#DF3966"/>
<path d="M321.505 128.265C319.625 129.314 317.526 130.506 315.153 131.861C313.098 133.14 310.846 134.518 308.474 135.993C306.091 137.414 303.588 138.912 301.085 140.639C298.57 142.323 295.98 144.05 293.323 145.821C290.678 147.559 288.207 149.636 285.551 151.461C282.949 153.342 280.336 155.244 277.779 157.08C275.308 159.07 272.881 161.016 270.509 162.896C268.159 164.787 265.885 166.591 263.721 168.318C261.501 169.958 259.72 171.914 257.85 173.401C254.188 176.571 250.799 178.812 248.252 180.201C245.716 181.622 244.011 182.179 244.011 182.179L249.979 188.443C249.979 188.443 250.668 186.88 252.319 184.551C253.937 182.234 256.495 179.151 260.026 175.937C261.797 174.33 263.655 172.527 265.863 170.887C268.017 169.203 270.29 167.454 272.662 165.629C275.035 163.814 277.483 161.934 279.954 160.054C282.556 158.305 285.201 156.534 287.846 154.763C290.481 153.014 293.105 151.221 295.827 149.669C298.549 148.116 301.216 146.597 303.785 145.11C308.922 142.104 313.951 139.765 318.225 137.731C322.587 135.895 326.183 134.244 328.698 133.413C331.201 132.506 332.775 132.047 332.775 132.047L331.682 129.336L321.516 128.276L321.505 128.265Z" fill="#133D26"/>
<path d="M243.792 204.25C247.793 200.107 255.412 185.469 251.291 181.49C247.148 177.468 232.773 185.612 228.783 189.744C224.782 193.898 224.891 200.489 229.034 204.49C233.167 208.502 239.791 208.404 243.792 204.25Z" fill="#DF3966"/>
<path d="M400.89 154.085C398.747 154.413 396.375 154.828 393.697 155.276C391.314 155.757 388.734 156.293 386.001 156.862C383.279 157.375 380.404 157.922 377.474 158.698C374.523 159.409 371.484 160.152 368.401 160.906C365.297 161.606 362.268 162.721 359.153 163.53C356.059 164.404 352.966 165.279 349.916 166.142C346.91 167.148 343.969 168.165 341.105 169.116C338.241 170.067 335.486 170.996 332.863 171.871C330.217 172.658 327.878 173.882 325.593 174.636C321.078 176.342 317.132 177.282 314.257 177.719C311.382 178.2 309.6 178.134 309.6 178.134L313.065 186.06C313.065 186.06 314.246 184.825 316.586 183.218C318.903 181.611 322.368 179.566 326.796 177.741C329.004 176.855 331.365 175.795 333.999 175.008C336.59 174.177 339.345 173.303 342.176 172.373C345.029 171.488 347.97 170.57 350.943 169.651C353.993 168.897 357.087 168.143 360.181 167.378C363.263 166.634 366.346 165.858 369.418 165.334C372.5 164.809 375.539 164.284 378.458 163.803C384.307 162.721 389.849 162.262 394.549 161.824C399.272 161.595 403.218 161.278 405.885 161.365C408.542 161.354 410.193 161.464 410.193 161.464L410.083 158.534L400.901 154.074L400.89 154.085Z" fill="#133D26"/>
<path d="M301.817 198.773C306.999 196.27 319.198 185.153 316.673 179.971C314.17 174.779 297.882 177.5 292.7 180.004C287.519 182.529 285.354 188.771 287.868 193.942C290.383 199.123 296.635 201.309 301.817 198.773Z" fill="#DF3966"/>
</svg>
