<svg width="343" height="451" viewBox="0 0 343 451" fill="none" xmlns="http://www.w3.org/2000/svg">
<path d="M0.748169 446.659C0.748169 446.659 1.52431 444.877 3.00007 441.543C4.4977 438.176 6.72773 433.29 9.65739 427.146C12.5105 420.959 16.2819 413.602 20.4687 405.087C24.9288 396.735 29.6294 387.104 35.3794 376.949C38.2107 371.855 41.1622 366.542 44.2121 361.043C47.4041 355.643 50.7164 350.035 54.1052 344.285C60.7625 332.709 68.513 320.913 76.2525 308.55C84.2216 296.361 92.6608 283.855 101.472 271.339C105.997 265.162 110.578 258.953 115.169 252.711L122.067 243.332L129.325 234.193C139.043 222.026 148.543 209.707 158.841 198.349C163.88 192.566 168.865 186.838 173.795 181.175C178.823 175.578 184.071 170.309 189.143 165.084C194.259 159.88 199.287 154.764 204.217 149.747C209.235 144.828 214.417 140.302 219.412 135.842C229.469 127.02 238.641 118.319 248.053 111.377C257.214 104.14 265.697 97.6361 273.01 91.6346C280.749 86.1798 287.516 81.4464 293.08 77.511C298.71 73.7069 302.93 70.4493 305.466 67.6836C308.057 65.0053 309.172 63.1688 309.172 63.1688L313.938 70.3727C313.938 70.3727 311.915 70.7991 308.603 72.3295C305.236 73.8052 300.809 76.7349 295.431 80.8124C289.998 84.8243 283.417 89.6997 275.841 95.2748C268.626 101.298 260.668 108.36 251.945 115.914C243.003 123.26 234.356 132.377 224.878 141.625C220.243 146.358 215.204 150.906 210.372 155.912C205.65 160.995 200.807 166.199 195.877 171.468C191.034 176.813 185.765 181.951 180.868 187.537C176.025 193.178 171.106 198.852 166.143 204.612C156.031 215.905 146.685 228.181 137.12 240.249L129.992 249.344L123.215 258.669C118.7 264.867 114.196 271.065 109.736 277.187C101.133 289.682 92.628 301.969 84.7026 314.048C77.0068 326.27 69.2782 337.912 62.6318 349.379C59.243 355.075 55.9417 360.606 52.7496 365.962C49.6888 371.395 46.7045 376.632 43.8841 381.66C38.0467 391.652 33.2587 401.107 28.7221 409.35C24.4587 417.702 20.6108 424.949 17.714 431.016C14.7187 437.083 12.4559 441.849 10.9583 445.096C9.47156 448.365 8.67356 450.125 8.67356 450.125L0.759095 446.659H0.748169Z" fill="#133D26"/>
<path d="M214.788 139.766C214.788 139.766 216.242 139.242 219.084 138.433C221.894 137.503 225.818 136.487 230.519 135.208C232.88 134.65 235.46 134.049 238.171 133.415C240.86 132.748 243.713 132.038 246.698 131.502C249.671 130.923 252.732 130.332 255.847 129.72C258.963 129.064 262.177 128.802 265.347 128.244C268.528 127.742 271.709 127.25 274.825 126.758C277.984 126.419 281.088 126.091 284.084 125.774C287.09 125.446 289.965 125.118 292.719 124.823C295.463 124.429 298.076 124.55 300.481 124.298C305.28 123.97 309.27 123.161 312.068 122.374C314.878 121.609 316.485 120.789 316.485 120.789L316.66 129.414C316.66 129.414 315.075 128.802 312.276 128.321C309.489 127.807 305.488 127.435 300.721 127.632C298.338 127.742 295.758 127.774 293.047 128.157C290.325 128.485 287.472 128.846 284.51 129.195C281.558 129.589 278.498 129.972 275.393 130.387C272.321 130.977 269.206 131.579 266.079 132.202C262.964 132.825 259.848 133.382 256.82 134.202C253.814 135.022 250.841 135.809 247.966 136.574C242.205 138.061 237.001 139.952 232.519 141.515C228.158 143.286 224.43 144.653 222.036 145.855C219.631 146.948 218.177 147.735 218.177 147.735L214.81 139.777L214.788 139.766Z" fill="#133D26"/>
<path d="M332.183 136.279C326.432 136.159 310.713 131.163 310.833 125.402C310.942 119.641 326.859 115.301 332.631 115.411C338.37 115.531 342.961 120.286 342.852 126.058C342.721 131.819 337.965 136.399 332.193 136.279H332.183Z" fill="#DF3966"/>
<path d="M331.199 68.9517C326.039 71.5206 309.795 74.3956 307.226 69.225C304.646 64.0762 316.736 52.8276 321.896 50.2806C327.067 47.6898 333.33 49.8105 335.899 54.9593C338.457 60.1081 336.369 66.3719 331.199 68.9517Z" fill="#DF3966"/>
<path d="M242.861 119.707C243.473 117.641 244.151 115.323 244.905 112.732C245.517 110.36 246.173 107.802 246.851 105.102C247.572 102.435 248.337 99.5928 248.917 96.6194C249.562 93.6788 250.207 90.607 250.884 87.5134C251.606 84.4197 251.934 81.2058 252.557 78.0466C253.114 74.8765 253.683 71.7063 254.229 68.5799C254.634 65.4425 255.017 62.3598 255.399 59.3646C255.782 56.3693 256.153 53.4943 256.514 50.7505C256.962 48.0067 256.886 45.3831 257.203 43C257.618 38.1901 258.504 34.2219 259.345 31.4453C260.176 28.6687 260.996 27.0727 260.996 27.0727L252.371 26.7338C252.371 26.7338 252.961 28.3298 253.388 31.1392C253.847 33.9268 254.153 37.9278 253.858 42.7049C253.716 45.0879 253.628 47.6569 253.191 50.3788C252.797 53.0789 252.393 55.9321 251.978 58.8836C251.529 61.8351 251.081 64.8741 250.622 67.9677C249.966 71.0176 249.288 74.1441 248.622 77.2377C247.944 80.3532 247.321 83.4687 246.446 86.453C245.572 89.4701 244.719 92.3998 243.877 95.2639C242.292 100.992 240.303 106.174 238.641 110.612C236.805 114.952 235.351 118.657 234.115 120.997C232.968 123.391 232.17 124.823 232.17 124.823L234.826 126.025L242.872 119.696L242.861 119.707Z" fill="#133D26"/>
<path d="M245.812 11.0581C245.812 16.819 250.513 32.637 256.263 32.626C262.035 32.626 266.692 16.7971 266.681 11.0471C266.67 5.27527 262.002 0.618414 256.241 0.607483C250.469 0.618414 245.801 5.29712 245.812 11.0581Z" fill="#DF3966"/>
<path d="M201.332 159.815C201.66 157.694 202.009 155.289 202.414 152.6C202.698 150.195 202.993 147.561 203.31 144.806C203.66 142.051 204.043 139.143 204.218 136.126C204.447 133.109 204.699 129.993 204.928 126.812C205.223 123.653 205.103 120.417 205.311 117.204C205.442 114.012 205.573 110.787 205.704 107.628C205.661 104.468 205.628 101.342 205.584 98.3247C205.573 95.3076 205.551 92.3998 205.54 89.6451C205.606 86.8684 205.18 84.2777 205.169 81.8727C204.928 77.041 205.256 72.9853 205.726 70.1431C206.174 67.2572 206.776 65.5737 206.776 65.5737L198.172 66.4045C198.172 66.4045 198.981 67.9022 199.779 70.6241C200.61 73.3242 201.441 77.2705 201.824 82.0148C201.988 84.387 202.25 86.9668 202.184 89.7106C202.184 92.4435 202.152 95.3295 202.152 98.3029C202.086 101.298 202.053 104.37 202.02 107.485C201.78 110.612 201.539 113.771 201.288 116.963C201.026 120.122 200.829 123.303 200.359 126.397C199.911 129.491 199.451 132.53 199.025 135.459C198.216 141.362 196.948 146.763 195.91 151.387C194.652 155.934 193.723 159.782 192.816 162.285C192.007 164.789 191.406 166.341 191.406 166.341L194.193 167.183L201.31 159.815H201.332Z" fill="#133D26"/>
<path d="M189.558 51.7781C190.345 57.4626 197.123 72.5044 202.829 71.7173C208.546 70.9412 211.017 54.6094 210.23 48.9031C209.443 43.2078 204.185 39.2068 198.478 39.9939C192.772 40.781 188.76 46.0391 189.569 51.7781H189.558Z" fill="#DF3966"/>
<path d="M157.616 206.088C157.715 203.935 157.835 201.519 157.955 198.786C157.977 196.359 158.01 193.725 158.054 190.937C158.13 188.16 158.196 185.242 158.054 182.214C157.999 179.186 157.922 176.059 157.846 172.889C157.791 169.708 157.354 166.494 157.234 163.28C157.037 160.077 156.84 156.863 156.632 153.704C156.272 150.567 155.922 147.462 155.594 144.467C155.266 141.483 154.949 138.586 154.643 135.842C154.446 133.098 153.768 130.54 153.495 128.157C152.774 123.38 152.686 119.324 152.861 116.416C153.003 113.498 153.44 111.76 153.44 111.76L144.979 113.476C144.979 113.476 145.941 114.897 147.002 117.51C148.095 120.111 149.33 123.948 150.183 128.649C150.609 131.01 151.123 133.535 151.342 136.268C151.604 138.99 151.877 141.865 152.161 144.817C152.424 147.79 152.697 150.873 152.981 153.966C153.069 157.104 153.156 160.285 153.211 163.477C153.298 166.636 153.429 169.817 153.255 172.933C153.134 176.07 152.981 179.131 152.85 182.093C152.675 188.04 151.954 193.55 151.385 198.239C150.62 202.907 150.084 206.831 149.439 209.4C148.882 212.013 148.445 213.598 148.445 213.598L151.309 214.123L157.627 206.088H157.616Z" fill="#133D26"/>
<path d="M134.9 99.7896C136.267 105.387 144.553 119.663 150.139 118.286C155.736 116.941 156.534 100.456 155.168 94.8594C153.812 89.2625 148.171 85.83 142.585 87.1855C136.977 88.5519 133.534 94.1817 134.9 99.7896Z" fill="#DF3966"/>
<path d="M109.627 268.868C109.747 266.726 109.856 264.299 109.987 261.588C110.02 259.139 110.053 256.516 110.075 253.728C110.151 250.951 110.217 248.033 110.075 244.994C110.02 241.977 109.944 238.85 109.845 235.669C109.802 232.51 109.375 229.307 109.244 226.082C109.036 222.879 108.84 219.676 108.632 216.506C108.293 213.369 107.943 210.264 107.604 207.28C107.265 204.285 106.948 201.388 106.664 198.633C106.446 195.878 105.757 193.342 105.495 190.948C104.773 186.16 104.697 182.115 104.861 179.207C105.014 176.289 105.451 174.551 105.451 174.551L96.9788 176.267C96.9788 176.267 97.9189 177.688 99.0012 180.301C100.083 182.902 101.33 186.739 102.171 191.44C102.587 193.79 103.111 196.326 103.319 199.07C103.582 201.781 103.855 204.645 104.15 207.608C104.412 210.603 104.675 213.664 104.97 216.768C105.057 219.906 105.134 223.076 105.221 226.257C105.298 229.427 105.407 232.63 105.254 235.735C105.112 238.872 104.981 241.922 104.85 244.895C104.653 250.842 103.942 256.341 103.374 261.041C102.62 265.72 102.073 269.633 101.428 272.213C100.87 274.815 100.422 276.389 100.422 276.389L103.297 276.925L109.616 268.89L109.627 268.868Z" fill="#133D26"/>
<path d="M86.9327 162.581C88.2991 168.167 96.5744 182.432 102.16 181.077C107.768 179.732 108.577 163.236 107.211 157.639C105.833 152.042 100.193 148.61 94.5957 149.976C88.9988 151.321 85.5553 156.973 86.9327 162.581Z" fill="#DF3966"/>
<path d="M70.1964 333.714C70.0215 331.561 69.8248 329.156 69.5952 326.445C69.3219 324.018 68.994 321.394 68.677 318.629C68.3927 315.874 68.0866 312.966 67.5619 309.982C67.1137 306.987 66.6218 303.893 66.1299 300.745C65.7036 297.607 64.84 294.492 64.2824 291.311C63.6703 288.173 63.0581 285.014 62.4569 281.899C61.7026 278.827 60.9593 275.799 60.2268 272.88C59.5272 269.961 58.8385 267.13 58.1717 264.43C57.6142 261.73 56.5976 259.292 56.04 256.953C54.7064 252.329 54.0942 248.306 53.8865 245.398C53.657 242.501 53.8756 240.719 53.8756 240.719L45.6879 243.496C45.6879 243.496 46.8029 244.786 48.2021 247.235C49.6342 249.672 51.3613 253.313 52.8152 257.86C53.5258 260.123 54.3785 262.583 54.936 265.283C55.5481 267.928 56.1931 270.748 56.8599 273.667C57.5049 276.575 58.1717 279.581 58.8495 282.631C59.3414 285.714 59.8333 288.873 60.3252 292.01C60.7953 295.137 61.3419 298.285 61.5823 301.39C61.8556 304.505 62.118 307.566 62.3585 310.507C62.9379 316.442 62.9379 321.985 62.9816 326.718C62.8176 331.451 62.7958 335.398 62.4787 338.054C62.2601 340.699 62.0415 342.328 62.0415 342.328L64.9493 342.492L70.1855 333.703L70.1964 333.714Z" fill="#133D26"/>
<path d="M33.9364 231.242C36.0134 236.598 46.0596 249.694 51.427 247.606C56.8271 245.54 55.4826 229.11 53.4165 223.721C51.3286 218.343 45.2834 215.664 39.916 217.741C34.5377 219.796 31.8704 225.853 33.9364 231.242Z" fill="#DF3966"/>
<path d="M188.192 172.659C190.302 172.244 192.685 171.796 195.341 171.282C197.757 170.921 200.37 170.528 203.113 170.09C205.857 169.62 208.743 169.128 211.749 168.844C214.756 168.494 217.849 168.134 221.019 167.773C224.168 167.358 227.392 167.347 230.606 167.019C233.798 166.756 237.023 166.505 240.171 166.253C243.331 166.155 246.457 166.068 249.463 165.991C252.48 165.904 255.377 165.805 258.143 165.707C260.898 165.521 263.51 165.86 265.915 165.762C270.736 165.816 274.77 165.335 277.623 164.734C280.487 164.176 282.127 163.521 282.127 163.521L281.646 172.156C281.646 172.156 280.094 171.402 277.361 170.714C274.617 170.003 270.671 169.303 265.893 169.128C263.499 169.041 260.92 168.899 258.176 169.063C255.454 169.172 252.568 169.303 249.594 169.434C246.61 169.598 243.517 169.752 240.412 169.926C237.296 170.287 234.148 170.659 230.989 171.009C227.841 171.391 224.681 171.719 221.61 172.299C218.549 172.889 215.521 173.457 212.602 174.004C206.754 175.042 201.397 176.507 196.817 177.742C192.302 179.153 188.498 180.246 186.038 181.23C183.546 182.159 182.048 182.826 182.048 182.826L181.119 180.071L188.181 172.67L188.192 172.659Z" fill="#133D26"/>
<path d="M296.633 180.169C290.894 179.59 275.612 173.425 276.169 167.686C276.716 161.936 292.927 158.831 298.666 159.388C304.394 159.968 308.581 165.051 308.035 170.801C307.466 176.518 302.361 180.727 296.633 180.169Z" fill="#DF3966"/>
<path d="M150.128 221.524C152.26 221.327 154.687 221.13 157.376 220.9C159.824 220.769 162.448 220.649 165.236 220.507C168.001 220.321 170.909 220.124 173.948 220.146C176.976 220.113 180.103 220.059 183.284 220.015C186.454 219.917 189.668 220.245 192.892 220.245C196.106 220.31 199.32 220.398 202.49 220.474C205.639 220.704 208.743 220.922 211.749 221.152C214.767 221.36 217.652 221.567 220.418 221.742C223.173 221.83 225.742 222.431 228.158 222.606C232.946 223.13 237.001 223.054 239.898 222.77C242.806 222.507 244.522 222.015 244.522 222.015L243.156 230.542C243.156 230.542 241.702 229.646 239.046 228.673C236.4 227.678 232.53 226.596 227.786 225.929C225.425 225.601 222.878 225.175 220.123 225.076C217.401 224.923 214.526 224.748 211.553 224.584C208.557 224.442 205.497 224.278 202.37 224.125C199.233 224.169 196.063 224.213 192.882 224.256C189.7 224.311 186.519 224.311 183.415 224.584C180.299 224.847 177.238 225.098 174.287 225.339C168.351 225.765 162.874 226.705 158.218 227.448C153.583 228.421 149.68 229.099 147.122 229.842C144.553 230.498 142.99 231.001 142.99 231.001L142.345 228.159L150.128 221.524Z" fill="#133D26"/>
<path d="M257.225 240.042C251.584 238.894 236.99 231.176 238.149 225.546C239.275 219.895 255.716 218.452 261.368 219.578C267.019 220.736 270.66 226.224 269.523 231.876C268.397 237.516 262.865 241.189 257.225 240.042Z" fill="#DF3966"/>
<path d="M103.046 276.837C105.177 276.487 107.571 276.116 110.261 275.711C112.666 275.427 115.278 275.11 118.055 274.782C120.81 274.421 123.706 274.028 126.735 273.82C129.752 273.569 132.856 273.317 136.026 273.044C139.186 272.76 142.41 272.836 145.624 272.629C148.838 272.465 152.063 272.333 155.211 272.191C158.381 272.191 161.497 272.224 164.514 272.235C167.542 272.257 170.439 272.246 173.194 272.235C175.959 272.148 178.572 272.563 180.955 272.574C185.787 272.771 189.842 272.421 192.707 271.929C195.571 271.47 197.254 270.847 197.254 270.847L196.478 279.461C196.478 279.461 194.969 278.663 192.237 277.876C189.536 277.067 185.601 276.236 180.846 275.908C178.452 275.744 175.872 275.504 173.139 275.591C170.406 275.613 167.531 275.657 164.547 275.689C161.562 275.733 158.458 275.799 155.364 275.853C152.249 276.105 149.079 276.345 145.887 276.63C142.749 276.892 139.579 277.122 136.485 277.603C133.392 278.094 130.353 278.543 127.423 278.991C121.531 279.822 116.131 281.122 111.529 282.194C106.97 283.473 103.133 284.413 100.641 285.331C98.1157 286.184 96.5852 286.796 96.5852 286.796L95.7654 283.987L103.057 276.826L103.046 276.837Z" fill="#133D26"/>
<path d="M211.181 287.999C205.464 287.244 190.389 280.521 191.143 274.837C191.887 269.12 208.208 266.54 213.914 267.305C219.631 268.059 223.643 273.296 222.889 279.013C222.145 284.719 216.898 288.753 211.192 288.009L211.181 287.999Z" fill="#DF3966"/>
<path d="M56.9474 346.417C58.8495 345.356 60.9483 344.198 63.3314 342.886C65.4959 341.782 67.8352 340.59 70.3276 339.333C72.7872 338.043 75.3671 336.677 78.1546 335.463C80.9094 334.184 83.7407 332.883 86.6266 331.55C89.4907 330.172 92.5515 329.167 95.5031 327.855C98.4546 326.62 101.428 325.373 104.358 324.149C107.331 323.078 110.272 322.028 113.114 321.001C115.945 319.973 118.678 318.978 121.269 318.027C123.827 317 126.418 316.497 128.68 315.677C133.272 314.212 136.966 312.485 139.481 311.053C142.039 309.643 143.394 308.473 143.394 308.473L145.613 316.836C145.613 316.836 143.919 316.606 141.088 316.792C138.289 316.967 134.299 317.535 129.708 318.858C127.423 319.536 124.898 320.181 122.362 321.208C119.804 322.17 117.115 323.187 114.327 324.236C111.54 325.319 108.676 326.423 105.768 327.549C102.904 328.871 100.029 330.194 97.1319 331.528C94.2459 332.861 91.3381 334.173 88.6162 335.682C85.8833 337.19 83.1832 338.666 80.5924 340.098C75.3343 342.897 70.7212 345.979 66.764 348.559C62.927 351.314 59.6475 353.522 57.6142 355.26C55.5263 356.9 54.302 358.004 54.302 358.004L52.5638 355.654L56.9693 346.439L56.9474 346.417Z" fill="#133D26"/>
<path d="M162.339 319.798C156.72 321.055 140.257 319.929 139.011 314.311C137.743 308.692 152.183 300.69 157.802 299.433C163.421 298.176 168.996 301.718 170.253 307.336C171.51 312.966 167.968 318.552 162.339 319.798Z" fill="#DF3966"/>
</svg>
