<svg width="40" height="101" viewBox="0 0 40 101" fill="none" xmlns="http://www.w3.org/2000/svg">
<path d="M37.93 56.2604L36.76 57.4704C35.55 41.4604 28.82 25.0304 23.85 17.0104C24.01 16.4304 24.21 15.8404 24.52 15.2704C25.39 13.6004 26.48 12.4304 27.93 11.2504C29.05 10.3304 30.6 9.48043 31.42 8.27043C32.33 6.91043 33.67 3.03043 32.78 1.60043C30.83 5.80043 26.54 5.59042 23.02 7.76042C21.73 8.56042 20.87 9.46043 20.3 10.4604C19.77 9.44043 18.95 8.49043 17.7 7.64043C14.28 5.30043 9.99004 5.30043 8.21004 0.94043C7.27004 2.35043 8.45003 6.36043 9.30003 7.77043C10.06 9.04043 11.58 9.97043 12.66 10.9404C14.06 12.1904 15.1 13.4104 15.9 15.1204C16.18 15.7104 16.36 16.3004 16.49 16.8904C10.96 24.7404 4.42003 41.3504 3.14003 57.7604L1.94003 56.5404C1.45003 56.0804 0.930032 55.8704 0.610032 55.2704C-0.489968 61.7004 0.730026 70.3804 4.01003 76.7904C6.10003 92.4404 12.16 100.38 20.94 100.06C29.86 99.7404 34.83 91.5204 36.56 76.1304C39.64 69.7304 40.47 61.2604 39.27 55.0004C38.95 55.6004 38.43 55.8104 37.94 56.2604H37.93ZM20.39 83.0104C18.92 73.6704 18.4 64.2804 18.27 54.9004C18.34 45.5204 18.65 36.1304 19.98 26.7704C21.28 36.1604 21.56 45.5204 21.6 54.8804C21.65 64.2504 21.56 73.6004 20.39 83.0104Z" fill="#1E7187"/>
</svg>
