<svg width="47" height="52" viewBox="0 0 47 52" fill="none" xmlns="http://www.w3.org/2000/svg">
<path d="M20.8622 30.4639C4.95681 58.0006 -13.594 25.8727 18.2168 25.8727C-13.594 25.8727 4.95681 -6.25525 20.8622 21.2814C4.95681 -6.25525 42.0695 -6.25525 26.175 21.2814C42.0695 -6.25525 60.6204 25.8727 28.8205 25.8727C60.6204 25.8727 42.0695 58.0006 26.175 30.4639C42.0695 58.0006 4.95681 58.0006 20.8622 30.4639Z" fill="white"/>
<path d="M28.099 25.8728C28.099 28.4198 26.0438 30.464 23.5187 30.464C20.9935 30.464 18.9165 28.4198 18.9165 25.8728C18.9165 23.3257 20.9825 21.2815 23.5187 21.2815C26.0548 21.2815 28.099 23.3257 28.099 25.8728Z" fill="#FFCF17"/>
</svg>
