<svg width="324" height="464" viewBox="0 0 324 464" fill="none" xmlns="http://www.w3.org/2000/svg">
<path d="M323.422 460.62C323.422 460.62 322.745 458.806 321.476 455.373C320.187 451.93 318.241 446.923 315.672 440.616C313.19 434.275 309.845 426.711 306.172 417.966C302.204 409.373 298.083 399.48 292.945 389.008C290.42 383.761 287.785 378.284 285.052 372.61C282.177 367.035 279.204 361.242 276.143 355.306C270.174 343.358 263.135 331.136 256.138 318.346C248.902 305.709 241.206 292.722 233.149 279.714C228.984 273.286 224.787 266.804 220.567 260.321L214.227 250.548L207.526 240.994C198.529 228.292 189.762 215.436 180.164 203.488C175.474 197.421 170.828 191.409 166.226 185.473C161.548 179.603 156.628 174.027 151.851 168.518C147.052 163.008 142.341 157.608 137.717 152.317C133.005 147.114 128.075 142.293 123.363 137.549C113.842 128.148 105.195 118.921 96.2095 111.433C87.4861 103.683 79.4077 96.6866 72.4661 90.2698C65.0545 84.3667 58.5831 79.2398 53.2594 74.9984C47.8592 70.8662 43.8364 67.3572 41.4752 64.4603C39.0374 61.64 38.0317 59.7379 38.0317 59.7379L32.8611 66.6466C32.8611 66.6466 34.8506 67.1823 38.0645 68.9204C41.344 70.582 45.5854 73.774 50.7232 78.1576C55.9048 82.4865 62.2014 87.7336 69.4271 93.7351C76.2922 100.185 83.8022 107.684 92.0665 115.762C100.571 123.611 108.661 133.231 117.57 143.004C121.932 147.988 126.698 152.831 131.234 158.111C135.64 163.457 140.176 168.933 144.779 174.498C149.304 180.127 154.256 185.56 158.815 191.409C163.329 197.323 167.899 203.291 172.512 209.315C181.946 221.175 190.56 233.976 199.393 246.602L205.984 256.091L212.204 265.798C216.347 272.27 220.469 278.697 224.568 285.07C232.428 298.046 240.2 310.814 247.404 323.342C254.368 335.99 261.407 348.069 267.365 359.919C270.415 365.8 273.388 371.517 276.253 377.049C278.996 382.635 281.664 388.057 284.2 393.238C289.436 403.558 293.667 413.287 297.711 421.77C301.461 430.362 304.893 437.817 307.429 444.037C310.053 450.268 312.042 455.144 313.343 458.478C314.644 461.834 315.344 463.638 315.344 463.638L323.444 460.642L323.422 460.62Z" fill="#133D26"/>
<path d="M127.747 141.714C127.747 141.714 126.315 141.102 123.528 140.118C120.773 139.035 116.925 137.789 112.301 136.237C109.972 135.548 107.447 134.805 104.769 133.996C102.113 133.165 99.3251 132.302 96.3736 131.58C93.4439 130.826 90.4268 130.061 87.3441 129.263C84.2723 128.421 81.0803 127.984 77.9539 127.229C74.8166 126.541 71.6682 125.852 68.5745 125.185C65.4372 124.66 62.3655 124.158 59.4031 123.666C56.4187 123.152 53.5546 122.671 50.8326 122.201C48.1325 121.654 45.509 121.611 43.115 121.206C38.3488 120.605 34.4135 119.566 31.6587 118.604C28.9149 117.675 27.3626 116.779 27.3626 116.779L26.6848 125.382C26.6848 125.382 28.2918 124.857 31.1231 124.54C33.9325 124.201 37.9443 124.07 42.6887 124.54C45.0608 124.781 47.6407 124.977 50.3408 125.513C53.0299 126.005 55.8612 126.519 58.7908 127.054C61.7205 127.612 64.7376 128.191 67.8203 128.782C70.8593 129.558 73.9202 130.334 77.0138 131.132C80.0856 131.941 83.1683 132.684 86.1307 133.679C89.0932 134.674 92.0118 135.636 94.8322 136.576C100.495 138.391 105.589 140.577 109.962 142.402C114.236 144.425 117.854 146.01 120.172 147.343C122.522 148.59 123.91 149.453 123.91 149.453L127.736 141.714H127.747Z" fill="#133D26"/>
<path d="M10.7684 131.362C16.5074 131.58 32.5004 127.503 32.719 121.753C32.9486 116.003 17.3165 110.723 11.5555 110.504C5.80553 110.286 0.951888 114.768 0.733256 120.528C0.514625 126.289 4.99649 131.143 10.7684 131.362Z" fill="#FFCF17"/>
<path d="M15.6876 64.1871C20.6833 67.0621 36.731 70.8882 39.595 65.8815C42.4701 60.8749 31.0575 48.9485 26.0618 46.1063C21.0551 43.2204 14.682 44.9694 11.8179 49.9651C8.94288 54.939 10.6809 61.334 15.6876 64.198V64.1871Z" fill="#FFCF17"/>
<path d="M100.888 120.047C100.396 117.96 99.8498 115.598 99.2595 112.953C98.7895 110.559 98.2866 107.968 97.7619 105.224C97.1935 102.524 96.6031 99.6491 96.1986 96.643C95.7176 93.6586 95.2586 90.565 94.7667 87.4276C94.242 84.3012 94.0998 81.0764 93.6626 77.8844C93.2909 74.6923 92.9083 71.5004 92.5475 68.3411C92.3398 65.1819 92.1322 62.0773 91.9245 59.0602C91.7059 56.054 91.4981 53.1572 91.3123 50.4024C91.028 47.6477 91.2467 45.0241 91.0827 42.6301C90.9516 37.8202 90.3065 33.7974 89.6288 30.9661C88.951 28.1348 88.2296 26.506 88.2296 26.506L96.8654 26.659C96.8654 26.659 96.1768 28.2223 95.5865 30.9989C94.9853 33.7646 94.4387 37.7437 94.4387 42.5208C94.4387 44.9038 94.384 47.4946 94.6682 50.2166C94.8868 52.9276 95.1273 55.8026 95.3678 58.7869C95.6521 61.7603 95.9253 64.8102 96.1877 67.9367C96.6687 71.0194 97.1607 74.1786 97.6417 77.3159C98.1336 80.4533 98.5709 83.6016 99.2705 86.6406C99.9701 89.6905 100.648 92.6857 101.315 95.5935C102.572 101.398 104.244 106.689 105.644 111.215C107.229 115.664 108.453 119.435 109.546 121.851C110.563 124.311 111.273 125.787 111.273 125.787L108.551 126.814L100.899 120.026L100.888 120.047Z" fill="#133D26"/>
<path d="M104.31 11.4203C103.982 17.1704 98.3632 32.6823 92.6132 32.3434C86.8632 31.9936 83.1354 15.9241 83.4852 10.1741C83.8131 4.43506 88.7652 0.040596 94.5152 0.368543C100.276 0.718353 104.66 5.65941 104.321 11.4203H104.31Z" fill="#FFCF17"/>
<path d="M140.012 162.517C139.805 160.385 139.586 157.969 139.356 155.269C139.214 152.831 139.072 150.197 138.919 147.431C138.723 144.644 138.526 141.736 138.526 138.708C138.471 135.691 138.395 132.553 138.351 129.372C138.252 126.202 138.558 122.988 138.548 119.752C138.602 116.56 138.657 113.335 138.722 110.165C138.952 107.006 139.171 103.891 139.378 100.884C139.575 97.8783 139.761 94.9705 139.936 92.2267C140.012 89.45 140.603 86.8811 140.745 84.4761C141.269 79.6881 141.182 75.6216 140.876 72.7247C140.592 69.8278 140.1 68.1116 140.1 68.1116L148.627 69.4452C148.627 69.4452 147.73 70.8991 146.79 73.5664C145.795 76.2119 144.724 80.0926 144.079 84.826C143.773 87.1981 143.357 89.7452 143.27 92.489C143.117 95.211 142.964 98.1078 142.8 101.07C142.68 104.066 142.538 107.126 142.385 110.253C142.439 113.379 142.505 116.56 142.549 119.741C142.625 122.912 142.647 126.093 142.92 129.208C143.193 132.324 143.467 135.384 143.718 138.325C144.177 144.272 145.139 149.727 145.894 154.405C146.877 159.029 147.577 162.921 148.331 165.479C148.998 168.037 149.512 169.6 149.512 169.6L146.67 170.256L140.002 162.495L140.012 162.517Z" fill="#133D26"/>
<path d="M158.082 55.3544C156.967 60.9951 149.315 75.6106 143.675 74.4956C138.012 73.3806 136.503 56.9395 137.607 51.2769C138.744 45.6362 144.221 41.9632 149.884 43.0782C155.535 44.2042 159.219 49.6918 158.082 55.3544Z" fill="#FFCF17"/>
<path d="M180.929 211.271C180.962 209.118 180.984 206.702 181.017 203.98C181.126 201.553 181.257 198.93 181.377 196.142C181.476 193.365 181.574 190.436 181.891 187.43C182.132 184.423 182.405 181.297 182.656 178.138C182.886 174.968 183.52 171.797 183.826 168.594C184.22 165.413 184.602 162.21 184.985 159.073C185.521 155.958 186.056 152.886 186.57 149.901C187.073 146.939 187.565 144.075 188.024 141.342C188.385 138.598 189.215 136.095 189.62 133.745C190.615 129.022 190.932 124.967 190.932 122.059C190.964 119.14 190.636 117.38 190.636 117.38L198.988 119.588C198.988 119.588 197.961 120.944 196.725 123.491C195.49 126.027 194.025 129.776 192.899 134.422C192.342 136.74 191.675 139.243 191.303 141.954C190.877 144.654 190.44 147.507 189.97 150.437C189.543 153.4 189.084 156.449 188.625 159.521C188.352 162.637 188.089 165.818 187.827 168.999C187.565 172.147 187.259 175.317 187.237 178.444C187.182 181.581 187.138 184.653 187.095 187.615C186.931 193.562 187.324 199.104 187.608 203.805C188.111 208.517 188.417 212.463 188.92 215.065C189.325 217.71 189.674 219.306 189.674 219.306L186.778 219.667L180.929 211.271Z" fill="#133D26"/>
<path d="M209.843 106.492C208.149 112.002 199.043 125.775 193.533 124.07C188.035 122.398 188.199 105.891 189.882 100.381C191.577 94.872 197.403 91.7783 202.913 93.4509C208.422 95.1453 211.527 100.983 209.843 106.492Z" fill="#FFCF17"/>
<path d="M225.147 276.763C225.158 274.62 225.191 272.182 225.224 269.482C225.333 267.044 225.453 264.41 225.585 261.622C225.672 258.846 225.782 255.927 226.088 252.91C226.317 249.893 226.59 246.788 226.864 243.618C227.082 240.459 227.705 237.289 228.023 234.075C228.416 230.905 228.799 227.702 229.181 224.542C229.717 221.427 230.241 218.355 230.766 215.393C231.269 212.419 231.761 209.544 232.209 206.822C232.581 204.089 233.423 201.597 233.816 199.225C234.811 194.492 235.139 190.458 235.139 187.539C235.15 184.62 234.822 182.86 234.822 182.86L243.185 185.058C243.185 185.058 242.157 186.424 240.922 188.971C239.686 191.507 238.211 195.257 237.085 199.903C236.538 202.22 235.871 204.723 235.5 207.445C235.073 210.135 234.625 212.988 234.166 215.917C233.729 218.88 233.281 221.93 232.811 225.023C232.537 228.128 232.275 231.298 232.012 234.479C231.75 237.627 231.455 240.809 231.422 243.924C231.389 247.061 231.335 250.122 231.291 253.085C231.138 259.032 231.521 264.574 231.805 269.296C232.308 274.008 232.614 277.943 233.106 280.556C233.51 283.179 233.86 284.775 233.86 284.775L230.963 285.147L225.126 276.752L225.147 276.763Z" fill="#133D26"/>
<path d="M254.04 171.983C252.356 177.482 243.261 191.245 237.752 189.55C232.231 187.878 232.406 171.36 234.079 165.851C235.784 160.341 241.61 157.248 247.12 158.942C252.619 160.626 255.734 166.463 254.029 171.983H254.04Z" fill="#FFCF17"/>
<path d="M260.719 343.795C261.003 341.652 261.364 339.269 261.746 336.58C262.162 334.164 262.632 331.562 263.135 328.829C263.572 326.086 264.053 323.211 264.753 320.27C265.387 317.308 266.042 314.247 266.731 311.142C267.354 308.038 268.382 304.966 269.125 301.828C269.923 298.724 270.721 295.597 271.508 292.548C272.437 289.53 273.367 286.546 274.263 283.66C275.138 280.785 275.99 278.009 276.81 275.352C277.532 272.696 278.679 270.324 279.39 268.028C280.986 263.48 281.839 259.501 282.21 256.626C282.604 253.73 282.494 251.937 282.494 251.937L290.507 255.205C290.507 255.205 289.316 256.43 287.763 258.802C286.189 261.152 284.255 264.683 282.538 269.132C281.697 271.351 280.702 273.756 279.991 276.413C279.226 279.025 278.417 281.791 277.575 284.666C276.755 287.53 275.925 290.492 275.061 293.488C274.394 296.538 273.727 299.653 273.05 302.78C272.383 305.862 271.661 308.978 271.235 312.06C270.787 315.165 270.35 318.182 269.912 321.112C269.005 327.004 268.666 332.546 268.338 337.269C268.229 342.002 268.032 345.948 268.174 348.605C268.24 351.261 268.371 352.901 268.371 352.901H265.463L260.752 343.806L260.719 343.795Z" fill="#133D26"/>
<path d="M302.915 243.64C300.532 248.854 289.731 261.338 284.484 258.955C279.226 256.583 281.533 240.229 283.916 234.982C286.31 229.746 292.497 227.428 297.744 229.811C302.991 232.183 305.309 238.382 302.915 243.64Z" fill="#FFCF17"/>
<path d="M152.365 176.105C150.288 175.569 147.927 174.979 145.292 174.323C142.909 173.809 140.329 173.262 137.607 172.672C134.896 172.06 132.043 171.393 129.059 170.923C126.086 170.398 123.003 169.852 119.865 169.305C116.75 168.704 113.536 168.507 110.344 167.993C107.163 167.545 103.971 167.108 100.833 166.681C97.6852 166.397 94.5697 166.124 91.5745 165.862C88.5574 165.588 85.6714 165.326 82.9166 165.064C80.1728 164.714 77.5602 164.9 75.1553 164.681C70.3344 164.43 66.3335 163.719 63.524 162.954C60.6928 162.221 59.0968 161.478 59.0968 161.478L59.075 170.114C59.075 170.114 60.66 169.447 63.4366 168.922C66.2133 168.365 70.2033 167.917 74.9804 168.015C77.3745 168.07 79.9652 168.07 82.6871 168.409C85.3981 168.682 88.2623 168.977 91.2247 169.283C94.1981 169.622 97.2699 169.961 100.364 170.311C103.446 170.846 106.584 171.393 109.71 171.94C112.825 172.508 115.963 173.022 118.991 173.776C122.03 174.552 125.003 175.285 127.878 176.006C133.672 177.383 138.919 179.176 143.423 180.663C147.839 182.346 151.567 183.658 153.972 184.784C156.399 185.855 157.875 186.61 157.875 186.61L158.968 183.91L152.354 176.115L152.365 176.105Z" fill="#133D26"/>
<path d="M43.6834 177.241C49.4444 177.012 65.0546 171.743 64.8469 165.993C64.6392 160.232 48.6354 156.176 42.8745 156.395C37.1245 156.624 32.6425 161.478 32.8502 167.228C33.0798 172.978 37.9334 177.471 43.6834 177.241Z" fill="#FFCF17"/>
<path d="M187.488 227.122C185.367 226.794 182.963 226.455 180.295 226.073C177.868 225.788 175.245 225.526 172.468 225.209C169.724 224.87 166.828 224.499 163.8 224.335C160.772 224.116 157.656 223.886 154.486 223.657C151.327 223.373 148.102 223.515 144.888 223.318C141.685 223.198 138.46 223.088 135.29 222.99C132.12 223.045 129.015 223.077 125.998 223.121C122.981 223.143 120.073 223.187 117.318 223.209C114.553 223.143 111.962 223.58 109.546 223.613C104.736 223.864 100.681 223.547 97.8165 223.088C94.9415 222.662 93.2362 222.061 93.2362 222.061L94.1108 230.664C94.1108 230.664 95.6084 229.844 98.3304 229.035C101.03 228.204 104.955 227.341 109.732 226.969C112.104 226.772 114.662 226.51 117.417 226.565C120.139 226.565 123.036 226.565 125.998 226.565C128.993 226.597 132.065 226.63 135.192 226.652C138.307 226.882 141.488 227.111 144.669 227.341C147.829 227.57 150.999 227.767 154.081 228.226C157.186 228.663 160.225 229.09 163.165 229.516C169.068 230.292 174.469 231.549 179.093 232.555C183.651 233.79 187.51 234.709 190.024 235.594C192.55 236.414 194.091 236.993 194.091 236.993L194.889 234.195L187.51 227.111L187.488 227.122Z" fill="#133D26"/>
<path d="M79.4952 239.322C85.2015 238.513 100.21 231.67 99.3906 225.974C98.6035 220.257 82.2608 217.863 76.5655 218.65C70.8483 219.481 66.891 224.75 67.7 230.456C68.498 236.163 73.7998 240.142 79.4952 239.322Z" fill="#FFCF17"/>
<path d="M231.247 285.114C229.148 284.622 226.776 284.13 224.12 283.551C221.737 283.125 219.135 282.655 216.391 282.163C213.669 281.638 210.794 281.07 207.777 280.698C204.782 280.272 201.688 279.834 198.54 279.375C195.403 278.905 192.178 278.807 188.975 278.402C185.794 278.063 182.569 277.735 179.443 277.407C176.283 277.243 173.157 277.079 170.151 276.905C167.134 276.741 164.237 276.577 161.471 276.402C158.727 276.15 156.104 276.413 153.71 276.281C148.878 276.205 144.855 275.604 142.013 274.959C139.171 274.325 137.542 273.603 137.542 273.603L137.815 282.25C137.815 282.25 139.378 281.551 142.133 280.916C144.877 280.261 148.856 279.681 153.633 279.627C156.027 279.616 158.607 279.506 161.34 279.758C164.062 279.954 166.937 280.151 169.91 280.359C172.884 280.589 175.966 280.829 179.071 281.069C182.175 281.507 185.324 281.933 188.483 282.392C191.609 282.851 194.758 283.267 197.819 283.934C200.89 284.589 203.886 285.234 206.782 285.847C212.62 287.027 217.922 288.634 222.469 289.968C226.94 291.509 230.723 292.679 233.149 293.739C235.631 294.734 237.107 295.434 237.107 295.434L238.101 292.69L231.225 285.125L231.247 285.114Z" fill="#133D26"/>
<path d="M122.664 289.902C128.414 289.487 143.849 283.66 143.434 277.943C143.029 272.193 126.883 268.662 121.144 269.077C115.394 269.504 111.076 274.5 111.503 280.239C111.907 285.989 116.914 290.318 122.664 289.902Z" fill="#FFCF17"/>
<path d="M273.192 357.263C271.377 356.093 269.333 354.814 267.026 353.36C264.927 352.136 262.654 350.813 260.238 349.403C257.855 347.96 255.362 346.451 252.662 345.085C249.984 343.642 247.24 342.166 244.442 340.668C241.665 339.138 238.659 337.936 235.795 336.471C232.92 335.061 230.023 333.629 227.181 332.262C224.273 331.005 221.398 329.792 218.632 328.6C215.866 327.408 213.188 326.261 210.663 325.157C208.171 323.976 205.613 323.331 203.405 322.369C198.901 320.631 195.326 318.696 192.899 317.111C190.44 315.548 189.15 314.302 189.15 314.302L186.439 322.522C186.439 322.522 188.144 322.391 190.964 322.752C193.752 323.08 197.698 323.888 202.213 325.474C204.454 326.282 206.925 327.081 209.417 328.25C211.898 329.376 214.533 330.546 217.255 331.748C219.966 332.995 222.775 334.263 225.606 335.552C228.383 337.028 231.171 338.526 233.991 340.034C236.779 341.532 239.61 343.008 242.244 344.68C244.89 346.353 247.492 347.982 250.006 349.556C255.089 352.66 259.516 356.005 263.309 358.815C266.982 361.788 270.131 364.182 272.066 366.03C274.044 367.79 275.214 368.97 275.214 368.97L277.083 366.729L273.224 357.263H273.192Z" fill="#133D26"/>
<path d="M169.56 324.511C175.092 326.086 191.598 325.944 193.173 320.39C194.758 314.848 180.82 306.026 175.278 304.441C169.735 302.867 163.963 306.081 162.378 311.612C160.804 317.144 164.007 322.937 169.549 324.511H169.56Z" fill="#FFCF17"/>
</svg>
